<?xml version="1.0" encoding="UTF-8"?>
<svg id="Layer_3" data-name="Layer 3" xmlns="http://www.w3.org/2000/svg" width="1512" height="834" xmlns:xlink="http://www.w3.org/1999/xlink" viewBox="0 0 1512 834">
  <defs>
    <style>
      .cls-1 {
        fill: none;
      }

      .cls-2 {
        clip-path: url(#clippath);
      }

      .cls-3 {
        fill: #0033d9;
      }
    </style>
    <clipPath id="clippath">
      <path id="_clipPath_" data-name="&amp;lt;clipPath&amp;gt;" class="cls-1" d="m1156.44,554.56s-41.84-69.96-312.02-69.96c-115.79,0-385.56,224.68-385.56,224.68h697.57v-154.71Z"/>
    </clipPath>
  </defs>
  <g class="cls-2">
    <path class="cls-3" d="m449.51,705.24c5.19,0,27.51-1.79,67.4-30.23,46.68-33.29,95.46-64.04,148.25-86.76,69.31-29.83,162-53.26,227.04-1.56,40.96,32.56,65.54,92.86,120.33,105.56,46.99,10.89,96.87-28.06,133.69-52.58,46.48-30.95,89.02-46.42,133.95-41.11,41.05,4.85,54.89,36.38,73.72,60.05,20.69,25.99,44.41,46.57,74.62,46.64v2.66H449.51v-2.66Z"/>
  </g>
</svg>