<?xml version="1.0" encoding="UTF-8"?>
<svg id="Layer_3" data-name="Layer 3" xmlns="http://www.w3.org/2000/svg" width="1512" height="711.39" viewBox="0 0 1512 711.39">
  <defs>
    <style>
      .cls-1 {
        fill: none;
        stroke: #000;
        stroke-linecap: round;
        stroke-linejoin: round;
        stroke-width: 3px;
      }
    </style>
  </defs>
  <path class="cls-1" d="m939,416.6l-.2.4m126.1-21.8c-9.5-15.5-30-61.4-39.5-86.5s-22.2-58.9-22.2-58.9c5.7-18.6,5.3-28.1,4.5-32.4-3.2,2.8-6.2,5.4-8.4,7.5-.2,3.8-.4,6.9-.6,8.6-1.1,10.2-25.8,26.5-45.9,44.8-15.8,14.4-34.1,33.9-41.1,41.5,3.8,23.1,8.5,50.8,11.6,64.2.8,3.5,1.4,6,1.9,7.3,3,7.8,8.9,16.7,14,25.2l41.5-100.5c10.8,22.4,36.4,55.7,58,79.5l26.4-.3c-.1.1-.2,0-.2,0h0Zm24.3-241.4c-1.4-4.2-13.8-18.4-28.9-24.4-15.2-6-22.9-1.8-27.5,5.6-4.6,7.4-8.1,16.2-9.5,21.9-1.4,5.6-2,14.5-10.2,17.3-1.2.4-2.5.8-3.8,1.1,2.9-.6,21.9-4.5,26.6-8.4,5.2-4.2.2-4.2,2.8-8.5,2.6-4.2,6.6-4.7,7.1,0s-1.9,12.5,0,12,10.8-2.8,15.5-8.9c0,0,10.8,11.8,19.8,17.1.4-.9.8-1.7,1.2-2.6,4.8-11.3,8.3-18,6.9-22.2h0Zm-28,7.7c-4.7,6.1-13.7,8.5-15.5,8.9-1.9.5.5-7.3,0-12s-4.5-4.2-7.1,0,2.3,4.2-2.8,8.5c-4.8,3.9-23.7,7.8-26.7,8.4-.2.1-.4.1-.4.1-2.3.6-4.7,1-7.3,1.3h0l-.2.3c-.4,10.9-1.4,34.3-2.2,47.9,2.3-2.1,5.2-4.7,8.4-7.5,7.3-6.4,16.2-13.7,22-17.4,0,0,4.9,14.8,15.9,14.5,10.6-.3,23.9-10.5,35.6-35.9-8.8-5.3-19.7-17.1-19.7-17.1h0Zm-59.9,15.2c-12.1,1.6-27.5,1.4-48.7,4.6-33.8,5-174.3,36.7-225.2,149.6,0,0,.7,3.6,2.3,9.6h0c3.2,12.1,10.1,34,22.4,56.4,8.2,15,18.9,29,29.1,40.5,12.6,14.1,24.4,24.2,29.8,27.3,0,0,4.2-8.9,11-21.9,11.5-22.1,30.4-56.2,48.5-78.6,3.9-4.8,7.7-9,11.5-12.5,1.8,3.8,3.8,7.5,5.8,11.2,4.1,7.5,8.4,14.8,12.4,21.2h22.8c-3-13.5-7.8-41.1-11.6-64.2-.4-2.5-.8-5-1.2-7.5l60.6-74.7-16-9.4,46.4-51.4c.1,0,.1-.1.1-.2h0Zm0,0h.2m-46.6,51.6l16,9.4-60.6,74.7c.4,2.4.8,4.9,1.2,7.5,7.1-7.6,25.3-27.1,41.1-41.5,20.1-18.4,44.8-34.6,45.9-44.8.2-1.8.4-4.8.6-8.6.8-13.6,1.7-37,2.2-47.9l-46.4,51.2h0Zm12.4,241c-2-4.5-7-11.4-13.9-19.6-9.5-11.4-22.5-25.4-35.4-38.7h0c-21.3-21.9-42.3-42.2-47.4-46.8-18.1,22.4-37,56.4-48.5,78.6,0,0,59.3,55.9,87.2,70.8,0,0-10.9,11.7-11.7,55.1-.7,43.4,4.6,100.1,4.6,100.1h50.3s15-158.6,16.8-170.5c1.7-11.9,3.8-15.9-2-29h0Zm-4.7,223.5c-21.4-5.9-26.6-10.8-27.1-24.1h-31.5s1.4,7.2,0,12.3c-1.4,5.2-9.7,20.5-8.9,28.2h92.9c0,.1-4-10.5-25.4-16.4Zm-62.4-308.7c-4-6.5-8.3-13.7-12.4-21.2-2-3.6-3.9-7.4-5.8-11.2-3.7,3.5-7.6,7.7-11.5,12.5,5.1,4.6,26.2,24.8,47.4,46.8-.2-.5-8.2-11.5-17.7-26.9h0Zm74-198.1s-54.6,16-88,49.4-29.4,47.5-20.5,76.2c3,9.6,8.9,24.9,16.3,40.1m62.5,74.7c-1.6-3.2-3.5-6.5-5.5-9.8-5.1-8.6-11-17.5-14-25.2-.5-1.3-1.2-3.8-1.9-7.3h-22.8c9.5,15.3,17.5,26.4,17.8,26.9h0c12.9,13.3,25.8,27.2,35.4,38.7-.6-6.6-3.3-12-9-23.3h0Zm-39.1-144.2s2,13.1,4.8,30.2m-158,84.5c-12.2-22.4-19.1-44.2-22.4-56.3-.4.9-20.5,47.5-34,76.4-13.7,29.2-42.4,88-63.1,116.8-20.7,28.7-71.1,82.8-84.7,90.8,0,0-27.3,6.6-37.2,19.3l31.1,65.4h34.3s-5.7-13.7-18.3-20.7l7.5-34.8,9.9,18.3s80-58.8,133.6-128.9c53.7-70.1,72.3-105.8,72.3-105.8-10.1-11.4-20.8-25.5-29-40.5h0Zm606.8,309.7l96.8-44.1c2.8-1.3,4.1-4.7,2.8-7.5l-91.2-200.2c-1.3-2.9-4.7-4.1-7.5-2.8l-96.8,44.1c-2.8,1.3-4.1,4.7-2.8,7.5l91.2,200.2c1.3,2.8,4.6,4.1,7.5,2.8h0Zm-17.9-227.4l7.4,16.2,16.2-7.4-7.4-16.2-16.2,7.4Zm9.3,20.5l7.4,16.2,16.2-7.4-7.4-16.2-16.2,7.4h0Zm9.3,20.4l7.4,16.2,16.2-7.4-7.4-16.2-16.2,7.4Zm9.3,20.4l7.4,16.2,16.2-7.4-7.4-16.2-16.2,7.4Zm9.3,20.4l7.4,16.2,16.2-7.4-7.4-16.2-16.2,7.4Zm9.3,20.4l7.4,16.2,16.2-7.4-7.4-16.2-16.2,7.4Zm9.3,20.4l7.4,16.2,16.2-7.4-7.4-16.2-16.2,7.4Zm9.3,20.4l7.4,16.2,16.2-7.4-7.4-16.2-16.2,7.4Zm9.3,20.4l7.4,16.2,16.2-7.4-7.4-16.2-16.2,7.4Zm-94.8-154l7.4,16.2,16.2-7.4-7.4-16.2-16.2,7.4Zm9.3,20.4l7.4,16.2,16.2-7.4-7.4-16.2-16.2,7.4h0Zm9.3,20.4l7.4,16.2,16.2-7.4-7.4-16.2-16.2,7.4Zm9.3,20.4l7.4,16.2,16.2-7.4-7.4-16.2-16.2,7.4Zm9.3,20.5l7.4,16.2,16.2-7.4-7.4-16.2-16.2,7.4Zm9.3,20.4l7.4,16.2,16.2-7.4-7.4-16.2-16.2,7.4Zm9.3,20.4l7.4,16.2,16.2-7.4-7.4-16.2-16.2,7.4Zm-76.2-113.2l7.4,16.2,16.2-7.4-7.4-16.2-16.2,7.4h0Zm9.3,20.4l7.4,16.2,16.2-7.4-7.4-16.2-16.2,7.4Zm9.3,20.4l7.4,16.2,16.2-7.4-7.4-16.2-16.2,7.4Zm9.3,20.4l7.4,16.2,16.2-7.4-7.4-16.2-16.2,7.4Zm9.3,20.4l7.4,16.2,16.2-7.4-7.4-16.2-16.2,7.4Zm9.3,20.4l7.4,16.2,16.2-7.4-7.4-16.2-16.2,7.4Zm9.3,20.5l7.4,16.2,16.2-7.4-7.4-16.2-16.2,7.4Zm9.3,20.4l7.4,16.2,16.2-7.4-7.4-16.2-16.2,7.4Zm49.6,11.8l-3.7-8.1-5.6-12.3-16.2,7.4,5.6,12.3-4.2,1.9-6.3,2.9-9.9,4.5,7.4,16.2,9.9-4.5,6.3-2.9,20.4-9.3-3.7-8.1h0Zm-135.1-145.4l7.4,16.2,16.2-7.4-7.4-16.2-16.2,7.4h0Zm58,84.4l-4.6-10.2-1.9-4.2-7.4-16.1-1.9-4.2-7.4-16.2-9.3-20.4-16.2,7.4,9.3,20.4,7.4,16.2,1.9,4.2,7.4,16.2,1.9,4.2,4.6,10.2,2.7,6,16.2-7.4-2.7-6.1h0Zm-11.5,17.6l7.4,16.2,16.2-7.4-7.4-16.2-16.2,7.4Zm9.3,20.4l7.4,16.2,16.2-7.4-7.4-16.2-16.2,7.4Zm9.3,20.5l7.4,16.2,16.2-7.4-7.4-16.2-16.2,7.4Zm9.3,20.4l7.4,16.2,16.2-7.4-7.4-16.2-16.2,7.4Zm-352.5-167.5h51.6v-51.6h-51.6v51.6h0Zm51.5,0h51.6v-51.6h-51.6v51.6Zm51.6,0h51.6v-51.6h-51.6v51.6Zm51.6,0h51.6v-51.6h-51.6v51.6Zm51.6,0h51.6v-51.6h-51.6v51.6Zm-206.4,51.6h51.6v-51.6h-51.6v51.6h0Zm51.6,0h51.6v-51.6h-51.6v51.6Zm51.6,0h51.6v-51.6h-51.6v51.6Zm51.6,0h51.6v-51.6h-51.6v51.6Zm51.6,0h51.6v-51.6h-51.6v51.6Zm-206.4,51.6h51.6v-51.6h-51.6v51.6h0Zm51.6,0h51.6v-51.6h-51.6v51.6Zm-51.6,51.5h51.6v-51.6h-51.6v51.6h0Zm51.6,0h51.6v-51.6h-51.6v51.6Zm-51.6,51.6h51.6v-51.6h-51.6v51.6h0Zm51.6,0h51.6v-51.6h-51.6v51.6Zm154.8-154.7h-103.2v154.8h154.8v-154.8h-51.6Zm-25.8,0c-42.7,0-77.4,34.6-77.4,77.4s34.6,77.4,77.4,77.4,77.4-34.6,77.4-77.4-34.7-77.4-77.4-77.4ZM0,709.2h1512m-416.8-286.7c-1.5-2.5-1.9-4.7-1.2-6,.6-1,1.9-1.5,3.7-1.5,1.3,0,2.6.3,4.6,1.6,1.1-.2,2.2-.4,3.1-.6-.1-.3-.1-.6-.2-1v-.2c-.2-.8-1.5-3.9-7.5-3.9-6.8,0-10.7,5.6-6,13.5,6.3,10.8,22.9,13.5,22.9,13.5-1.2-1.6-2.2-3.2-3.2-4.9-4.7-1.2-12.6-4.4-16.2-10.5h0Zm-260.4,285.6c27.9,0,50.5-22.6,50.5-50.5s-22.6-50.5-50.5-50.5-50.5,22.6-50.5,50.5,22.6,50.5,50.5,50.5Zm7-170l-130,158.8,15,12.3,130-158.8-15-12.3Zm381.1,95.9l-40.1-40.1-41.2,41.2m81.3,32.5l-40.1-40.1-41.2,41.2m-39.3-252.1c-.7.1-1.4.2-2.1.4-2.3.4-4.4.5-6.4.4-.2,1.3.2,3.2,1.4,5.2,1.2,2.1,3,3.9,5,5.4,1.1-.6,2.1-1.3,3.2-2,8.5-6,13.3-8.9,12.9-10-1-3.3-.7-1.8-10.9.2l-3.1.4Zm-10.6,7.9c-1.7-3-2.3-5.6-2-7.7-10-2.1-17.6-9.9-24.8-21.5l-26.4.3c11.5,12.7,21.9,22.6,28.4,26.8,13.6,8.7,22.2,9.8,29.1,7.4-1.6-1.6-3.1-3.3-4.3-5.3h0Zm62.9-22.4c-2.4-5.2-6.8-10.5-14.9-13.6-19.7-7.6-43.5-9.3-37.4-23.8,5.1-12,50.7-17.1,73.3-21.3,22.6-4.2,54.6-6.5,54.1-16.9s-26.4-15.5-61.9-22.6-51.1-12.7-51.3-21.9c-.3-9.2,30.8-16.2,68.4-24.7,20.2-4.6,45.8-11.1,67.8-19.8-3.7-3.4-6.7-6.4-9-8.9-15.8-17.6-25.4-42.4-16.9-57.9s34.3-24.5,53.2-15.8c18.9,8.7,31,33.2,15,55.8-7.4,10.5-23.5,19.4-42.3,26.8,23.3,21.7,72.3,59.3,105.3,81.6,38.1,25.8,102.1,77.9,115.8,111.6,13.6,33.7,15.1,78.8-34.7,105.4-21.8,11.7-27.9,14.5-27.9,14.5m-235.9-148.5c0,.3-.1,48.7-34.4,48.7-12.6,0-20.9-5.5-26.4-12.8-1.2-1.6-2.2-3.2-3.2-4.9-1.8-3.3-3.2-6.7-4.2-10.1,6-4.2,9.4-6.4,9.1-7.3-1-3.3-.7-1.8-10.9.2-.1-.3-.1-.6-.2-.9v-.2c-1.4-7.3-1.3-12.8-1.3-12.8h71.5v.1h0Z"/>
</svg>