<?xml version="1.0" encoding="UTF-8"?>
<svg id="Layer_2" data-name="Layer 2" xmlns="http://www.w3.org/2000/svg" width="1512" height="711.39" viewBox="0 0 1512 711.39">
  <defs>
    <style>
      .cls-1, .cls-2, .cls-3 {
        fill: none;
      }

      .cls-4 {
        fill: #f8ea21;
      }

      .cls-5 {
        fill: aqua;
      }

      .cls-6 {
        fill: #0033d9;
      }

      .cls-7 {
        fill: #fff;
      }

      .cls-8 {
        fill: #ffcad9;
      }

      .cls-9 {
        fill: #66fb66;
      }

      .cls-2 {
        stroke-width: 5px;
      }

      .cls-2, .cls-3 {
        stroke: #000;
        stroke-linecap: round;
        stroke-linejoin: round;
      }

      .cls-3 {
        stroke-width: 3px;
      }
    </style>
  </defs>
  <circle class="cls-9" cx="400.4" cy="145.5" r="35.2"/>
  <polygon class="cls-6" points="1259.6 449.7 1423.3 449.7 1423.3 248 1259.6 449.7"/>
  <g>
    <line class="cls-1" x1="939" y1="416.6" x2="938.9" y2="417"/>
    <path class="cls-7" d="m1103.3,425.9c-8.5,6-17.7,8.5-36.4-3.5-6.5-4.2-16.9-14.1-28.4-26.8l26.4-.3c9.5,15.4,19.7,24.1,35.2,21.7s15-4.9,16.1-1.1c.4,1.1-4.4,4-12.9,10Z"/>
    <path class="cls-1" d="m1007.6,217.4c-.4-2-.9-2.8-.9-2.8"/>
    <path d="m1065,395.3l-26.4.3c-21.7-23.8-47.2-57.1-58-79.5l-41.6,100.5c-5.1-8.6-11-17.5-14-25.2-.5-1.3-1.2-3.8-1.9-7.3-3-13.5-7.8-41.1-11.6-64.2,7.1-7.6,25.3-27.1,41.1-41.5,20.1-18.4,44.8-34.6,45.9-44.8.2-1.8.4-4.8.6-8.6,2.3-2.1,5.2-4.7,8.4-7.5.9,4.2,1.3,13.8-4.5,32.4,0,0,12.7,33.9,22.2,58.9,9.5,25.1,30,70.9,39.5,86.5.2-.1.2,0,.3,0h0Z"/>
    <path d="m1082.2,176c-.4.9-.8,1.7-1.2,2.6-8.9-5.3-19.8-17.1-19.8-17.1-4.7,6.1-13.7,8.5-15.5,8.9-1.9.5.5-7.3,0-12s-4.5-4.2-7.1,0,2.3,4.2-2.8,8.5c-4.8,3.9-23.7,7.8-26.7,8.4,1.3-.3,2.6-.7,3.8-1.1,8.3-2.8,8.8-11.6,10.2-17.3,1.4-5.6,4.9-14.5,9.5-21.9s12.3-11.6,27.5-5.6c15.2,6,27.5,20.1,28.9,24.4,1.6,4.2-1.9,10.9-6.8,22.2h0Z"/>
    <path class="cls-7" d="m1081,178.6c-11.7,25.4-25,35.5-35.6,35.9-10.9.4-15.9-14.5-15.9-14.5-5.8,3.7-14.7,11.1-22,17.4-3.2,2.8-6.2,5.4-8.4,7.5.8-13.6,1.7-37,2.2-47.9l.2-.3h0c2.5-.3,5-.7,7.3-1.3,0,0,.1,0,.4-.1,2.9-.6,21.9-4.5,26.6-8.4,5.2-4.2.2-4.2,2.8-8.5,2.6-4.2,6.6-4.7,7.1,0s-1.9,12.5,0,12,10.8-2.8,15.5-8.9c0,0,10.9,11.8,19.8,17.1h0Z"/>
    <path class="cls-7" d="m1001.3,176.9l-46.4,51.4,16,9.4-60.6,74.7c.4,2.4.8,4.9,1.2,7.5,3.8,23.1,8.5,50.8,11.6,64.2h-22.8c-4-6.5-8.3-13.7-12.4-21.2-2-3.6-3.9-7.4-5.8-11.2-3.7,3.5-7.6,7.7-11.5,12.5-18.1,22.4-37,56.4-48.5,78.6-6.8,13-11,21.9-11,21.9-5.5-3.1-17.2-13.2-29.8-27.3-10.2-11.4-20.9-25.5-29.1-40.5-12.2-22.4-19.1-44.2-22.4-56.3h0c-1.6-6-2.3-9.7-2.3-9.7,50.8-112.9,191.3-144.6,225.1-149.6,21.2-3.1,36.5-3,48.7-4.6v.2h0Z"/>
    <path class="cls-1" d="m999.1,224.9c-2.9,2.6-4.7,4.3-4.7,4.3"/>
    <path class="cls-7" d="m1001.3,176.9c-.4,10.9-1.4,34.3-2.2,47.9-.2,3.8-.4,6.9-.6,8.6-1.1,10.2-25.8,26.5-45.9,44.8-15.8,14.4-34.1,33.9-41.1,41.5-.4-2.5-.8-5-1.2-7.5l60.6-74.7-16-9.4,46.4-51.2h0Z"/>
    <path class="cls-5" d="m969.2,498.2c-1.8,11.8-16.8,170.5-16.8,170.5h-50.3s-5.3-56.7-4.6-100.1c.7-43.4,11.7-55.1,11.7-55.1-27.9-14.8-87.2-70.8-87.2-70.8,11.5-22.1,30.4-56.2,48.5-78.5,5.1,4.6,26.2,24.8,47.4,46.8h0c12.9,13.3,25.8,27.2,35.4,38.7,6.8,8.2,11.9,15.1,13.9,19.6,5.9,13.1,3.8,17.1,2,28.9h0Z"/>
    <path d="m988,709.3h-92.9c-.7-7.8,7.5-23.1,8.9-28.2,1.4-5.2,0-12.3,0-12.3h31.5c.5,13.3,5.7,18.2,27.1,24.1,21.4,5.8,25.4,16.4,25.4,16.4Z"/>
    <path d="m918,411c-21.3-21.9-42.3-42.2-47.4-46.8,3.9-4.8,7.7-9,11.5-12.5,1.8,3.8,3.8,7.5,5.8,11.2,4.1,7.5,8.4,14.8,12.4,21.2,9.4,15.4,17.4,26.4,17.7,26.9Z"/>
    <path class="cls-1" d="m882,351.8c-7.4-15.2-13.4-30.5-16.3-40.1-8.9-28.7-12.9-42.8,20.5-76.2s88-49.4,88-49.4"/>
    <path class="cls-7" d="m953.4,449.7c-9.5-11.4-22.5-25.4-35.4-38.7h0c-.3-.5-8.3-11.5-17.8-26.9h22.8c.8,3.5,1.4,6,1.9,7.3,3,7.8,8.9,16.7,14,25.2,2,3.3,3.9,6.6,5.5,9.8,5.8,11.3,8.5,16.7,9,23.3Z"/>
    <path class="cls-1" d="m905.5,282.2s2,13.1,4.8,30.2"/>
    <path d="m781.3,437.4s-18.7,35.6-72.3,105.8c-53.6,70.1-133.6,128.9-133.6,128.9l-9.9-18.3-7.5,34.8c12.7,7.1,18.3,20.7,18.3,20.7h-34.3l-31.1-65.4c9.9-12.7,37.2-19.3,37.2-19.3,13.7-8,64-62.1,84.7-90.8s49.4-87.5,63.1-116.8c13.5-29,33.6-75.5,34-76.4,3.2,12.1,10.1,34,22.4,56.3,8.1,15,18.8,29.1,29,40.5h0Z"/>
  </g>
  <path class="cls-4" d="m1175.3,402.2c0,.3-.1,48.7-34.4,48.7-12.6,0-20.9-5.5-26.4-12.8-1.2-1.6-2.2-3.2-3.2-4.9-2.4-4.4-4.1-9.2-5.2-13.6-.4-1.6-.7-3.1-1-4.5v-.2c-1.4-7.3-1.3-12.8-1.3-12.8l71.5.1h0Z"/>
  <path d="m1114.6,438.1s-16.6-2.7-22.9-13.5c-4.7-8-.8-13.5,6-13.5,6,0,7.2,3.1,7.5,3.9v.2c.3,1.5.6,3,1,4.5-4.7-4-6.5-4.6-8.5-4.6-1.8,0-3.2.6-3.7,1.5-.7,1.3-.3,3.5,1.2,6,3.6,6.1,11.5,9.3,16.3,10.7.9,1.6,1.9,3.3,3.1,4.8h0Z"/>
  <g>
    <rect x="1368.12" y="636.19" width="17.8" height="17.8" transform="translate(-143.52 628.83) rotate(-24.49)"/>
    <polygon points="1337.8 591.6 1333.2 581.4 1331.3 577.2 1323.9 561 1322 556.8 1314.6 540.6 1305.3 520.2 1289.2 527.5 1298.5 548 1305.8 564.1 1307.8 568.4 1315.1 584.5 1317.1 588.8 1321.7 599 1324.4 605 1340.6 597.6 1337.8 591.6"/>
    <rect x="1338.32" y="625.01" width="17.8" height="17.8" transform="translate(-141.57 615.47) rotate(-24.49)"/>
    <rect x="1347.72" y="645.48" width="17.8" height="17.8" transform="translate(-149.21 621.21) rotate(-24.49)"/>
    <rect x="1357.02" y="665.88" width="17.8" height="17.8" transform="translate(-156.83 626.9) rotate(-24.49)"/>
  </g>
  <circle class="cls-8" cx="1182.2" cy="631.9" r="77.4"/>
  <circle class="cls-9" cx="1362.8" cy="295.6" r="16"/>
  <path class="cls-7" d="m1100.2,417c15.5-2.4,15-4.9,16.1-1.1.3,1.1-4.5,4-12.9,10"/>
  <circle class="cls-7" cx="834.8" cy="657.7" r="50.5"/>
  <rect class="cls-9" x="681.66" y="613.97" width="205.19" height="19.4" transform="translate(-195.14 835.37) rotate(-50.69)"/>
  <line class="cls-3" x1="939" y1="416.6" x2="938.8" y2="417"/>
  <path class="cls-3" d="m1064.9,395.2c-9.5-15.5-30-61.4-39.5-86.5s-22.2-58.9-22.2-58.9c5.7-18.6,5.3-28.1,4.5-32.4-3.2,2.8-6.2,5.4-8.4,7.5-.2,3.8-.4,6.9-.6,8.6-1.1,10.2-25.8,26.5-45.9,44.8-15.8,14.4-34.1,33.9-41.1,41.5,3.8,23.1,8.5,50.8,11.6,64.2.8,3.5,1.4,6,1.9,7.3,3,7.8,8.9,16.7,14,25.2l41.5-100.5c10.8,22.4,36.4,55.7,58,79.5l26.4-.3c-.1.1-.2,0-.2,0h0Z"/>
  <path class="cls-3" d="m1089.2,153.8c-1.4-4.2-13.8-18.4-28.9-24.4-15.2-6-22.9-1.8-27.5,5.6-4.6,7.4-8.1,16.2-9.5,21.9-1.4,5.6-2,14.5-10.2,17.3-1.2.4-2.5.8-3.8,1.1,2.9-.6,21.9-4.5,26.6-8.4,5.2-4.2.2-4.2,2.8-8.5,2.6-4.2,6.6-4.7,7.1,0s-1.9,12.5,0,12,10.8-2.8,15.5-8.9c0,0,10.8,11.8,19.8,17.1.4-.9.8-1.7,1.2-2.6,4.8-11.3,8.3-18,6.9-22.2h0Z"/>
  <path class="cls-3" d="m1061.2,161.5c-4.7,6.1-13.7,8.5-15.5,8.9-1.9.5.5-7.3,0-12s-4.5-4.2-7.1,0,2.3,4.2-2.8,8.5c-4.8,3.9-23.7,7.8-26.7,8.4-.2.1-.4.1-.4.1-2.3.6-4.7,1-7.3,1.3h0l-.2.3c-.4,10.9-1.4,34.3-2.2,47.9,2.3-2.1,5.2-4.7,8.4-7.5,7.3-6.4,16.2-13.7,22-17.4,0,0,4.9,14.8,15.9,14.5,10.6-.3,23.9-10.5,35.6-35.9-8.8-5.3-19.7-17.1-19.7-17.1h0Z"/>
  <path class="cls-3" d="m1001.3,176.7c-12.1,1.6-27.5,1.4-48.7,4.6-33.8,5-174.3,36.7-225.2,149.6,0,0,.7,3.6,2.3,9.6h0c3.2,12.1,10.1,34,22.4,56.4,8.2,15,18.9,29,29.1,40.5,12.6,14.1,24.4,24.2,29.8,27.3,0,0,4.2-8.9,11-21.9,11.5-22.1,30.4-56.2,48.5-78.6,3.9-4.8,7.7-9,11.5-12.5,1.8,3.8,3.8,7.5,5.8,11.2,4.1,7.5,8.4,14.8,12.4,21.2h22.8c-3-13.5-7.8-41.1-11.6-64.2-.4-2.5-.8-5-1.2-7.5l60.6-74.7-16-9.4,46.4-51.4c.1,0,.1-.1.1-.2h0Z"/>
  <path class="cls-3" d="m1001.3,176.7h.2"/>
  <path class="cls-3" d="m954.9,228.3l16,9.4-60.6,74.7c.4,2.4.8,4.9,1.2,7.5,7.1-7.6,25.3-27.1,41.1-41.5,20.1-18.4,44.8-34.6,45.9-44.8.2-1.8.4-4.8.6-8.6.8-13.6,1.7-37,2.2-47.9l-46.4,51.2h0Z"/>
  <path class="cls-3" d="m967.3,469.3c-2-4.5-7-11.4-13.9-19.6-9.5-11.4-22.5-25.4-35.4-38.7h0c-21.3-21.9-42.3-42.2-47.4-46.8-18.1,22.4-37,56.4-48.5,78.6,0,0,59.3,55.9,87.2,70.8,0,0-10.9,11.7-11.7,55.1-.7,43.4,4.6,100.1,4.6,100.1h50.3s15-158.6,16.8-170.5c1.7-11.9,3.8-15.9-2-29Z"/>
  <path class="cls-3" d="m962.6,692.8c-21.4-5.9-26.6-10.8-27.1-24.1h-31.5s1.4,7.2,0,12.3c-1.4,5.2-9.7,20.5-8.9,28.2h92.9c0,.1-4-10.5-25.4-16.4Z"/>
  <path class="cls-3" d="m900.2,384.1c-4-6.5-8.3-13.7-12.4-21.2-2-3.6-3.9-7.4-5.8-11.2-3.7,3.5-7.6,7.7-11.5,12.5,5.1,4.6,26.2,24.8,47.4,46.8-.2-.5-8.2-11.5-17.7-26.9Z"/>
  <path class="cls-3" d="m974.2,186s-54.6,16-88,49.4-29.4,47.5-20.5,76.2c3,9.6,8.9,24.9,16.3,40.1"/>
  <path class="cls-3" d="m944.5,426.4c-1.6-3.2-3.5-6.5-5.5-9.8-5.1-8.6-11-17.5-14-25.2-.5-1.3-1.2-3.8-1.9-7.3h-22.8c9.5,15.3,17.5,26.4,17.8,26.9h0c12.9,13.3,25.8,27.2,35.4,38.7-.6-6.6-3.3-12-9-23.3Z"/>
  <path class="cls-3" d="m905.4,282.2s2,13.1,4.8,30.2"/>
  <path class="cls-3" d="m752.2,396.9c-12.2-22.4-19.1-44.2-22.4-56.3-.4.9-20.5,47.5-34,76.4-13.7,29.2-42.4,88-63.1,116.8-20.7,28.7-71.1,82.8-84.7,90.8,0,0-27.3,6.6-37.2,19.3l31.1,65.4h34.3s-5.7-13.7-18.3-20.7l7.5-34.8,9.9,18.3s80-58.8,133.6-128.9c53.7-70.1,72.3-105.8,72.3-105.8-10.1-11.4-20.8-25.5-29-40.5h0Z"/>
  <path class="cls-3" d="m1359,706.6l96.8-44.1c2.8-1.3,4.1-4.7,2.8-7.5l-91.2-200.2c-1.3-2.9-4.7-4.1-7.5-2.8l-96.8,44.1c-2.8,1.3-4.1,4.7-2.8,7.5l91.2,200.2c1.3,2.8,4.6,4.1,7.5,2.8h0Z"/>
  <rect class="cls-3" x="1343.99" y="474.69" width="17.81" height="17.81" transform="translate(-78.63 605.84) rotate(-24.55)"/>
  <rect class="cls-3" x="1353.29" y="495.19" width="17.81" height="17.81" transform="translate(-86.3 611.56) rotate(-24.55)"/>
  <rect class="cls-3" x="1362.59" y="515.59" width="17.81" height="17.81" transform="translate(-93.94 617.27) rotate(-24.55)"/>
  <rect class="cls-3" x="1371.89" y="535.99" width="17.81" height="17.81" transform="translate(-101.57 622.98) rotate(-24.55)"/>
  <rect class="cls-3" x="1381.19" y="556.39" width="17.81" height="17.81" transform="translate(-109.21 628.69) rotate(-24.55)"/>
  <rect class="cls-3" x="1390.49" y="576.79" width="17.81" height="17.81" transform="translate(-116.84 634.39) rotate(-24.55)"/>
  <rect class="cls-3" x="1399.79" y="597.19" width="17.81" height="17.81" transform="translate(-124.48 640.1) rotate(-24.55)"/>
  <rect class="cls-3" x="1409.09" y="617.59" width="17.81" height="17.81" transform="translate(-132.11 645.81) rotate(-24.55)"/>
  <rect class="cls-3" x="1418.39" y="637.99" width="17.81" height="17.81" transform="translate(-139.75 651.52) rotate(-24.55)"/>
  <rect class="cls-3" x="1323.59" y="483.99" width="17.81" height="17.81" transform="translate(-84.33 598.21) rotate(-24.55)"/>
  <rect class="cls-3" x="1332.89" y="504.39" width="17.81" height="17.81" transform="translate(-91.97 603.92) rotate(-24.55)"/>
  <rect class="cls-3" x="1342.19" y="524.79" width="17.81" height="17.81" transform="translate(-99.6 609.62) rotate(-24.55)"/>
  <rect class="cls-3" x="1351.49" y="545.19" width="17.81" height="17.81" transform="translate(-107.24 615.33) rotate(-24.55)"/>
  <rect class="cls-3" x="1360.79" y="565.69" width="17.81" height="17.81" transform="translate(-114.92 621.05) rotate(-24.55)"/>
  <rect class="cls-3" x="1370.09" y="586.09" width="17.81" height="17.81" transform="translate(-122.55 626.76) rotate(-24.55)"/>
  <rect class="cls-3" x="1379.39" y="606.49" width="17.81" height="17.81" transform="translate(-130.19 632.47) rotate(-24.55)"/>
  <polygon class="cls-3" points="1300.3 497.8 1307.7 514 1323.9 506.6 1316.5 490.4 1300.3 497.8 1300.3 497.8"/>
  <rect class="cls-3" x="1312.49" y="513.69" width="17.81" height="17.81" transform="translate(-97.68 596.28) rotate(-24.55)"/>
  <rect class="cls-3" x="1321.79" y="534.09" width="17.81" height="17.81" transform="translate(-105.31 601.99) rotate(-24.55)"/>
  <rect class="cls-3" x="1331.09" y="554.49" width="17.81" height="17.81" transform="translate(-112.95 607.7) rotate(-24.55)"/>
  <rect class="cls-3" x="1340.39" y="574.89" width="17.81" height="17.81" transform="translate(-120.58 613.41) rotate(-24.55)"/>
  <rect class="cls-3" x="1349.69" y="595.29" width="17.81" height="17.81" transform="translate(-128.22 619.11) rotate(-24.55)"/>
  <rect class="cls-3" x="1358.99" y="615.79" width="17.81" height="17.81" transform="translate(-135.9 624.83) rotate(-24.55)"/>
  <rect class="cls-3" x="1368.29" y="636.19" width="17.81" height="17.81" transform="translate(-143.53 630.54) rotate(-24.55)"/>
  <polygon class="cls-3" points="1415 652.5 1411.3 644.4 1405.7 632.1 1389.5 639.5 1395.1 651.8 1390.9 653.7 1384.6 656.6 1374.7 661.1 1382.1 677.3 1392 672.8 1398.3 669.9 1418.7 660.6 1415 652.5 1415 652.5"/>
  <polygon class="cls-3" points="1279.9 507.1 1287.3 523.3 1303.5 515.9 1296.1 499.7 1279.9 507.1 1279.9 507.1"/>
  <polygon class="cls-3" points="1337.9 591.5 1333.3 581.3 1331.4 577.1 1324 561 1322.1 556.8 1314.7 540.6 1305.4 520.2 1289.2 527.6 1298.5 548 1305.9 564.2 1307.8 568.4 1315.2 584.6 1317.1 588.8 1321.7 599 1324.4 605 1340.6 597.6 1337.9 591.5"/>
  <rect class="cls-3" x="1329.29" y="604.59" width="17.81" height="17.81" transform="translate(-133.93 611.48) rotate(-24.55)"/>
  <rect class="cls-3" x="1338.59" y="624.99" width="17.81" height="17.81" transform="translate(-141.56 617.19) rotate(-24.55)"/>
  <rect class="cls-3" x="1347.89" y="645.49" width="17.81" height="17.81" transform="translate(-149.24 622.9) rotate(-24.55)"/>
  <rect class="cls-3" x="1357.19" y="665.89" width="17.81" height="17.81" transform="translate(-156.87 628.61) rotate(-24.55)"/>
  <polygon class="cls-3" points="1001.8 502.9 1053.4 502.9 1053.4 451.3 1001.8 451.3 1001.8 502.9 1001.8 502.9"/>
  <rect class="cls-3" x="1053.3" y="451.3" width="51.6" height="51.6"/>
  <rect class="cls-3" x="1104.9" y="451.3" width="51.6" height="51.6"/>
  <rect class="cls-3" x="1156.5" y="451.3" width="51.6" height="51.6"/>
  <rect class="cls-3" x="1208.1" y="451.3" width="51.6" height="51.6"/>
  <polygon class="cls-3" points="1001.7 554.5 1053.3 554.5 1053.3 502.9 1001.7 502.9 1001.7 554.5 1001.7 554.5"/>
  <rect class="cls-3" x="1053.3" y="502.9" width="51.6" height="51.6"/>
  <rect class="cls-3" x="1104.9" y="502.9" width="51.6" height="51.6"/>
  <rect class="cls-3" x="1156.5" y="502.9" width="51.6" height="51.6"/>
  <rect class="cls-3" x="1208.1" y="502.9" width="51.6" height="51.6"/>
  <polygon class="cls-3" points="1001.7 606.1 1053.3 606.1 1053.3 554.5 1001.7 554.5 1001.7 606.1 1001.7 606.1"/>
  <rect class="cls-3" x="1053.3" y="554.5" width="51.6" height="51.6"/>
  <polygon class="cls-3" points="1001.7 657.6 1053.3 657.6 1053.3 606 1001.7 606 1001.7 657.6 1001.7 657.6"/>
  <rect class="cls-3" x="1053.3" y="606" width="51.6" height="51.6"/>
  <polygon class="cls-3" points="1001.7 709.2 1053.3 709.2 1053.3 657.6 1001.7 657.6 1001.7 709.2 1001.7 709.2"/>
  <rect class="cls-3" x="1053.3" y="657.6" width="51.6" height="51.6"/>
  <polygon class="cls-3" points="1208.1 554.5 1104.9 554.5 1104.9 709.3 1259.7 709.3 1259.7 554.5 1208.1 554.5"/>
  <circle class="cls-3" cx="1182.3" cy="631.9" r="77.4"/>
  <line class="cls-2" y1="709.2" x2="1512" y2="709.2"/>
  <path class="cls-3" d="m1095.2,422.5c-1.5-2.5-1.9-4.7-1.2-6,.6-1,1.9-1.5,3.7-1.5,1.3,0,2.6.3,4.6,1.6,1.1-.2,2.2-.4,3.1-.6-.1-.3-.1-.6-.2-1v-.2c-.2-.8-1.5-3.9-7.5-3.9-6.8,0-10.7,5.6-6,13.5,6.3,10.8,22.9,13.5,22.9,13.5-1.2-1.6-2.2-3.2-3.2-4.9-4.7-1.2-12.6-4.4-16.2-10.5h0Z"/>
  <circle class="cls-3" cx="834.8" cy="657.6" r="50.5"/>
  <rect class="cls-3" x="681.69" y="613.95" width="205.23" height="19.4" transform="translate(-195.08 835.48) rotate(-50.69)"/>
  <polyline class="cls-3" points="1222.9 634 1182.8 593.9 1141.6 635.1"/>
  <polyline class="cls-3" points="1222.9 667.6 1182.8 627.5 1141.6 668.7"/>
  <path class="cls-3" d="m1102.3,416.6c-.7.1-1.4.2-2.1.4-2.3.4-4.4.5-6.4.4-.2,1.3.2,3.2,1.4,5.2,1.2,2.1,3,3.9,5,5.4,1.1-.6,2.1-1.3,3.2-2,8.5-6,13.3-8.9,12.9-10-1-3.3-.7-1.8-10.9.2l-3.1.4Z"/>
  <path class="cls-3" d="m1091.7,424.5c-1.7-3-2.3-5.6-2-7.7-10-2.1-17.6-9.9-24.8-21.5l-26.4.3c11.5,12.7,21.9,22.6,28.4,26.8,13.6,8.7,22.2,9.8,29.1,7.4-1.6-1.6-3.1-3.3-4.3-5.3Z"/>
  <path class="cls-3" d="m1154.6,402.1c-2.4-5.2-6.8-10.5-14.9-13.6-19.7-7.6-43.5-9.3-37.4-23.8,5.1-12,50.7-17.1,73.3-21.3,22.6-4.2,54.6-6.5,54.1-16.9s-26.4-15.5-61.9-22.6-51.1-12.7-51.3-21.9c-.3-9.2,30.8-16.2,68.4-24.7,20.2-4.6,45.8-11.1,67.8-19.8-3.7-3.4-6.7-6.4-9-8.9-15.8-17.6-25.4-42.4-16.9-57.9s34.3-24.5,53.2-15.8c18.9,8.7,31,33.2,15,55.8-7.4,10.5-23.5,19.4-42.3,26.8,23.3,21.7,72.3,59.3,105.3,81.6,38.1,25.8,102.1,77.9,115.8,111.6,13.6,33.7,15.1,78.8-34.7,105.4-21.8,11.7-27.9,14.5-27.9,14.5"/>
  <path class="cls-3" d="m1175.3,402.1c0,.3-.1,48.7-34.4,48.7-12.6,0-20.9-5.5-26.4-12.8-1.2-1.6-2.2-3.2-3.2-4.9-1.8-3.3-3.2-6.7-4.2-10.1,6-4.2,9.4-6.4,9.1-7.3-1-3.3-.7-1.8-10.9.2-.1-.3-.1-.6-.2-.9v-.2c-1.4-7.3-1.3-12.8-1.3-12.8l71.5.1h0Z"/>
</svg>