<?xml version="1.0" encoding="utf-8"?>
<!-- Generator: Adobe Illustrator 27.1.0, SVG Export Plug-In . SVG Version: 6.00 Build 0)  -->
<!DOCTYPE svg PUBLIC "-//W3C//DTD SVG 1.1//EN" "http://www.w3.org/Graphics/SVG/1.1/DTD/svg11.dtd" [
	<!ENTITY ns_extend "http://ns.adobe.com/Extensibility/1.0/">
	<!ENTITY ns_ai "http://ns.adobe.com/AdobeIllustrator/10.0/">
	<!ENTITY ns_graphs "http://ns.adobe.com/Graphs/1.0/">
	<!ENTITY ns_vars "http://ns.adobe.com/Variables/1.0/">
	<!ENTITY ns_imrep "http://ns.adobe.com/ImageReplacement/1.0/">
	<!ENTITY ns_sfw "http://ns.adobe.com/SaveForWeb/1.0/">
	<!ENTITY ns_custom "http://ns.adobe.com/GenericCustomNamespace/1.0/">
	<!ENTITY ns_adobe_xpath "http://ns.adobe.com/XPath/1.0/">
]>
<svg version="1.1"
	 id="Layer_2_00000107564297983538297900000002285921825507719825_" xmlns:x="&ns_extend;" xmlns:i="&ns_ai;" xmlns:graph="&ns_graphs;"
	 xmlns="http://www.w3.org/2000/svg" xmlns:xlink="http://www.w3.org/1999/xlink" x="0px" y="0px" width="1512px" height="711.4px"
	 viewBox="0 0 1512 711.4" style="enable-background:new 0 0 1512 711.4;" xml:space="preserve">
<style type="text/css">
	.st0{fill:#66FB66;}
	.st1{fill:#0033D9;}
	.st2{fill:none;}
	.st3{fill:#FFFFFF;}
	.st4{fill:#00FFFF;}
	.st5{fill:#F8EA21;}
	.st6{fill:#FFCAD9;}
	.st7{fill:none;stroke:#000000;stroke-width:3;stroke-linecap:round;stroke-linejoin:round;}
	.st8{fill:none;stroke:#000000;stroke-width:5;stroke-linecap:round;stroke-linejoin:round;}
</style>
<metadata>
	<sfw  xmlns="&ns_sfw;">
		<slices></slices>
		<sliceSourceBounds  bottomLeftOrigin="true" height="601.4" width="1517" x="-2.5" y="122.3"></sliceSourceBounds>
	</sfw>
</metadata>
<circle class="st0" cx="400.4" cy="145.5" r="35.2"/>
<polygon class="st1" points="1259.6,449.7 1423.3,449.7 1423.3,248 "/>
<g>
	<line class="st2" x1="939" y1="416.6" x2="938.9" y2="417"/>
	<path class="st3" d="M1103.3,425.9c-8.5,6-17.7,8.5-36.4-3.5c-6.5-4.2-16.9-14.1-28.4-26.8l26.4-0.3c9.5,15.4,19.7,24.1,35.2,21.7
		s15-4.9,16.1-1.1C1116.6,417,1111.8,419.9,1103.3,425.9z"/>
	<path class="st2" d="M1007.6,217.4c-0.4-2-0.9-2.8-0.9-2.8"/>
	<path d="M1065,395.3l-26.4,0.3c-21.7-23.8-47.2-57.1-58-79.5L939,416.6c-5.1-8.6-11-17.5-14-25.2c-0.5-1.3-1.2-3.8-1.9-7.3
		c-3-13.5-7.8-41.1-11.6-64.2c7.1-7.6,25.3-27.1,41.1-41.5c20.1-18.4,44.8-34.6,45.9-44.8c0.2-1.8,0.4-4.8,0.6-8.6
		c2.3-2.1,5.2-4.7,8.4-7.5c0.9,4.2,1.3,13.8-4.5,32.4c0,0,12.7,33.9,22.2,58.9c9.5,25.1,30,70.9,39.5,86.5
		C1064.9,395.2,1064.9,395.3,1065,395.3L1065,395.3z"/>
	<path d="M1082.2,176c-0.4,0.9-0.8,1.7-1.2,2.6c-8.9-5.3-19.8-17.1-19.8-17.1c-4.7,6.1-13.7,8.5-15.5,8.9c-1.9,0.5,0.5-7.3,0-12
		s-4.5-4.2-7.1,0s2.3,4.2-2.8,8.5c-4.8,3.9-23.7,7.8-26.7,8.4c1.3-0.3,2.6-0.7,3.8-1.1c8.3-2.8,8.8-11.6,10.2-17.3
		c1.4-5.6,4.9-14.5,9.5-21.9s12.3-11.6,27.5-5.6c15.2,6,27.5,20.1,28.9,24.4C1090.6,158,1087.1,164.7,1082.2,176L1082.2,176z"/>
	<path class="st3" d="M1081,178.6c-11.7,25.4-25,35.5-35.6,35.9c-10.9,0.4-15.9-14.5-15.9-14.5c-5.8,3.7-14.7,11.1-22,17.4
		c-3.2,2.8-6.2,5.4-8.4,7.5c0.8-13.6,1.7-37,2.2-47.9l0.2-0.3l0,0c2.5-0.3,5-0.7,7.3-1.3c0,0,0.1,0,0.4-0.1
		c2.9-0.6,21.9-4.5,26.6-8.4c5.2-4.2,0.2-4.2,2.8-8.5c2.6-4.2,6.6-4.7,7.1,0s-1.9,12.5,0,12s10.8-2.8,15.5-8.9
		C1061.2,161.5,1072.1,173.3,1081,178.6L1081,178.6z"/>
	<path class="st3" d="M1001.3,176.9l-46.4,51.4l16,9.4l-60.6,74.7c0.4,2.4,0.8,4.9,1.2,7.5c3.8,23.1,8.5,50.8,11.6,64.2h-22.8
		c-4-6.5-8.3-13.7-12.4-21.2c-2-3.6-3.9-7.4-5.8-11.2c-3.7,3.5-7.6,7.7-11.5,12.5c-18.1,22.4-37,56.4-48.5,78.6
		c-6.8,13-11,21.9-11,21.9c-5.5-3.1-17.2-13.2-29.8-27.3c-10.2-11.4-20.9-25.5-29.1-40.5c-12.2-22.4-19.1-44.2-22.4-56.3l0,0
		c-1.6-6-2.3-9.7-2.3-9.7C778.3,218,918.8,186.3,952.6,181.3c21.2-3.1,36.5-3,48.7-4.6C1001.3,176.8,1001.3,176.9,1001.3,176.9
		L1001.3,176.9z"/>
	<path class="st2" d="M1001.5,176.7c-0.1,0-0.2,0-0.2,0"/>
	<path class="st2" d="M999.1,224.9c-2.9,2.6-4.7,4.3-4.7,4.3"/>
	<path class="st3" d="M1001.3,176.9c-0.4,10.9-1.4,34.3-2.2,47.9c-0.2,3.8-0.4,6.9-0.6,8.6c-1.1,10.2-25.8,26.5-45.9,44.8
		c-15.8,14.4-34.1,33.9-41.1,41.5c-0.4-2.5-0.8-5-1.2-7.5l60.6-74.7l-16-9.4L1001.3,176.9L1001.3,176.9z"/>
	<path class="st4" d="M969.2,498.2c-1.8,11.8-16.8,170.5-16.8,170.5h-50.3c0,0-5.3-56.7-4.6-100.1c0.7-43.4,11.7-55.1,11.7-55.1
		c-27.9-14.8-87.2-70.8-87.2-70.8c11.5-22.1,30.4-56.2,48.5-78.5c5.1,4.6,26.2,24.8,47.4,46.8l0,0c12.9,13.3,25.8,27.2,35.4,38.7
		c6.8,8.2,11.9,15.1,13.9,19.6C973.1,482.4,971,486.4,969.2,498.2L969.2,498.2z"/>
	<path d="M988,709.3h-92.9c-0.7-7.8,7.5-23.1,8.9-28.2c1.4-5.2,0-12.3,0-12.3h31.5c0.5,13.3,5.7,18.2,27.1,24.1
		C984,698.7,988,709.3,988,709.3z"/>
	<path d="M918,411c-21.3-21.9-42.3-42.2-47.4-46.8c3.9-4.8,7.7-9,11.5-12.5c1.8,3.8,3.8,7.5,5.8,11.2c4.1,7.5,8.4,14.8,12.4,21.2
		C909.7,399.5,917.7,410.5,918,411z"/>
	<path class="st2" d="M882,351.8c-7.4-15.2-13.4-30.5-16.3-40.1c-8.9-28.7-12.9-42.8,20.5-76.2s88-49.4,88-49.4"/>
	<path class="st3" d="M953.4,449.7c-9.5-11.4-22.5-25.4-35.4-38.7l0,0c-0.3-0.5-8.3-11.5-17.8-26.9H923c0.8,3.5,1.4,6,1.9,7.3
		c3,7.8,8.9,16.7,14,25.2c2,3.3,3.9,6.6,5.5,9.8C950.2,437.7,952.9,443.1,953.4,449.7z"/>
	<path class="st2" d="M905.5,282.2c0,0,2,13.1,4.8,30.2"/>
	<path d="M781.3,437.4c0,0-18.7,35.6-72.3,105.8c-53.6,70.1-133.6,128.9-133.6,128.9l-9.9-18.3l-7.5,34.8
		c12.7,7.1,18.3,20.7,18.3,20.7H542l-31.1-65.4c9.9-12.7,37.2-19.3,37.2-19.3c13.7-8,64-62.1,84.7-90.8s49.4-87.5,63.1-116.8
		c13.5-29,33.6-75.5,34-76.4c3.2,12.1,10.1,34,22.4,56.3C760.4,411.9,771.1,426,781.3,437.4L781.3,437.4z"/>
</g>
<path class="st5" d="M1175.3,402.2c0,0.3-0.1,48.7-34.4,48.7c-12.6,0-20.9-5.5-26.4-12.8c-1.2-1.6-2.2-3.2-3.2-4.9
	c-2.4-4.4-4.1-9.2-5.2-13.6c-0.4-1.6-0.7-3.1-1-4.5c0,0,0-0.1,0-0.2c-1.4-7.3-1.3-12.8-1.3-12.8L1175.3,402.2L1175.3,402.2z"/>
<path d="M1114.6,438.1c0,0-16.6-2.7-22.9-13.5c-4.7-8-0.8-13.5,6-13.5c6,0,7.2,3.1,7.5,3.9c0,0.1,0,0.2,0,0.2c0.3,1.5,0.6,3,1,4.5
	c-4.7-4-6.5-4.6-8.5-4.6c-1.8,0-3.2,0.6-3.7,1.5c-0.7,1.3-0.3,3.5,1.2,6c3.6,6.1,11.5,9.3,16.3,10.7
	C1112.4,434.9,1113.4,436.6,1114.6,438.1L1114.6,438.1z"/>
<g>
	<rect x="1368.1" y="636.2" transform="matrix(0.91 -0.4145 0.4145 0.91 -143.5245 628.8304)" width="17.8" height="17.8"/>
	<polygon points="1337.8,591.6 1333.2,581.4 1331.3,577.2 1323.9,561 1322,556.8 1314.6,540.6 1305.3,520.2 1289.2,527.5 
		1298.5,548 1305.8,564.1 1307.8,568.4 1315.1,584.5 1317.1,588.8 1321.7,599 1324.4,605 1340.6,597.6 	"/>
	<rect x="1338.3" y="625" transform="matrix(0.91 -0.4145 0.4145 0.91 -141.5735 615.4749)" width="17.8" height="17.8"/>
	<rect x="1347.7" y="645.5" transform="matrix(0.91 -0.4145 0.4145 0.91 -149.2137 621.2116)" width="17.8" height="17.8"/>
	<rect x="1357" y="665.9" transform="matrix(0.91 -0.4145 0.4145 0.91 -156.8325 626.9008)" width="17.8" height="17.8"/>
</g>
<circle class="st6" cx="1182.2" cy="631.9" r="77.4"/>
<circle class="st0" cx="1362.8" cy="295.6" r="16"/>
<path class="st3" d="M1100.2,417c15.5-2.4,15-4.9,16.1-1.1c0.3,1.1-4.5,4-12.9,10"/>
<circle class="st3" cx="834.8" cy="657.7" r="50.5"/>
<rect x="681.7" y="614" transform="matrix(0.6335 -0.7737 0.7737 0.6335 -195.1364 835.3652)" class="st0" width="205.2" height="19.4"/>
<line class="st7" x1="939" y1="416.6" x2="938.8" y2="417"/>
<path class="st7" d="M1064.9,395.2c-9.5-15.5-30-61.4-39.5-86.5s-22.2-58.9-22.2-58.9c5.7-18.6,5.3-28.1,4.5-32.4
	c-3.2,2.8-6.2,5.4-8.4,7.5c-0.2,3.8-0.4,6.9-0.6,8.6c-1.1,10.2-25.8,26.5-45.9,44.8c-15.8,14.4-34.1,33.9-41.1,41.5
	c3.8,23.1,8.5,50.8,11.6,64.2c0.8,3.5,1.4,6,1.9,7.3c3,7.8,8.9,16.7,14,25.2L980.7,316c10.8,22.4,36.4,55.7,58,79.5l26.4-0.3
	C1065,395.3,1064.9,395.2,1064.9,395.2L1064.9,395.2z"/>
<path class="st7" d="M1089.2,153.8c-1.4-4.2-13.8-18.4-28.9-24.4c-15.2-6-22.9-1.8-27.5,5.6c-4.6,7.4-8.1,16.2-9.5,21.9
	c-1.4,5.6-2,14.5-10.2,17.3c-1.2,0.4-2.5,0.8-3.8,1.1c2.9-0.6,21.9-4.5,26.6-8.4c5.2-4.2,0.2-4.2,2.8-8.5c2.6-4.2,6.6-4.7,7.1,0
	s-1.9,12.5,0,12s10.8-2.8,15.5-8.9c0,0,10.8,11.8,19.8,17.1c0.4-0.9,0.8-1.7,1.2-2.6C1087.1,164.7,1090.6,158,1089.2,153.8
	L1089.2,153.8z"/>
<path class="st7" d="M1061.2,161.5c-4.7,6.1-13.7,8.5-15.5,8.9c-1.9,0.5,0.5-7.3,0-12s-4.5-4.2-7.1,0s2.3,4.2-2.8,8.5
	c-4.8,3.9-23.7,7.8-26.7,8.4c-0.2,0.1-0.4,0.1-0.4,0.1c-2.3,0.6-4.7,1-7.3,1.3l0,0l-0.2,0.3c-0.4,10.9-1.4,34.3-2.2,47.9
	c2.3-2.1,5.2-4.7,8.4-7.5c7.3-6.4,16.2-13.7,22-17.4c0,0,4.9,14.8,15.9,14.5c10.6-0.3,23.9-10.5,35.6-35.9
	C1072.1,173.3,1061.2,161.5,1061.2,161.5L1061.2,161.5z"/>
<path class="st7" d="M1001.3,176.7c-12.1,1.6-27.5,1.4-48.7,4.6c-33.8,5-174.3,36.7-225.2,149.6c0,0,0.7,3.6,2.3,9.6l0,0
	c3.2,12.1,10.1,34,22.4,56.4c8.2,15,18.9,29,29.1,40.5c12.6,14.1,24.4,24.2,29.8,27.3c0,0,4.2-8.9,11-21.9
	c11.5-22.1,30.4-56.2,48.5-78.6c3.9-4.8,7.7-9,11.5-12.5c1.8,3.8,3.8,7.5,5.8,11.2c4.1,7.5,8.4,14.8,12.4,21.2H923
	c-3-13.5-7.8-41.1-11.6-64.2c-0.4-2.5-0.8-5-1.2-7.5l60.6-74.7l-16-9.4l46.4-51.4C1001.3,176.9,1001.3,176.8,1001.3,176.7
	L1001.3,176.7z"/>
<path class="st7" d="M1001.3,176.7c0.1,0,0.2,0,0.2,0"/>
<path class="st7" d="M954.9,228.3l16,9.4l-60.6,74.7c0.4,2.4,0.8,4.9,1.2,7.5c7.1-7.6,25.3-27.1,41.1-41.5
	c20.1-18.4,44.8-34.6,45.9-44.8c0.2-1.8,0.4-4.8,0.6-8.6c0.8-13.6,1.7-37,2.2-47.9L954.9,228.3L954.9,228.3z"/>
<path class="st7" d="M967.3,469.3c-2-4.5-7-11.4-13.9-19.6c-9.5-11.4-22.5-25.4-35.4-38.7l0,0c-21.3-21.9-42.3-42.2-47.4-46.8
	c-18.1,22.4-37,56.4-48.5,78.6c0,0,59.3,55.9,87.2,70.8c0,0-10.9,11.7-11.7,55.1c-0.7,43.4,4.6,100.1,4.6,100.1h50.3
	c0,0,15-158.6,16.8-170.5C971,486.4,973.1,482.4,967.3,469.3z"/>
<path class="st7" d="M962.6,692.8c-21.4-5.9-26.6-10.8-27.1-24.1H904c0,0,1.4,7.2,0,12.3c-1.4,5.2-9.7,20.5-8.9,28.2H988
	C988,709.3,984,698.7,962.6,692.8z"/>
<path class="st7" d="M900.2,384.1c-4-6.5-8.3-13.7-12.4-21.2c-2-3.6-3.9-7.4-5.8-11.2c-3.7,3.5-7.6,7.7-11.5,12.5
	c5.1,4.6,26.2,24.8,47.4,46.8C917.7,410.5,909.7,399.5,900.2,384.1z"/>
<path class="st7" d="M974.2,186c0,0-54.6,16-88,49.4s-29.4,47.5-20.5,76.2c3,9.6,8.9,24.9,16.3,40.1"/>
<path class="st7" d="M944.5,426.4c-1.6-3.2-3.5-6.5-5.5-9.8c-5.1-8.6-11-17.5-14-25.2c-0.5-1.3-1.2-3.8-1.9-7.3h-22.8
	c9.5,15.3,17.5,26.4,17.8,26.9l0,0c12.9,13.3,25.8,27.2,35.4,38.7C952.9,443.1,950.2,437.7,944.5,426.4z"/>
<path class="st7" d="M905.4,282.2c0,0,2,13.1,4.8,30.2"/>
<path class="st7" d="M752.2,396.9c-12.2-22.4-19.1-44.2-22.4-56.3c-0.4,0.9-20.5,47.5-34,76.4c-13.7,29.2-42.4,88-63.1,116.8
	c-20.7,28.7-71.1,82.8-84.7,90.8c0,0-27.3,6.6-37.2,19.3l31.1,65.4h34.3c0,0-5.7-13.7-18.3-20.7l7.5-34.8l9.9,18.3
	c0,0,80-58.8,133.6-128.9c53.7-70.1,72.3-105.8,72.3-105.8C771.1,426,760.4,411.9,752.2,396.9L752.2,396.9z"/>
<path class="st7" d="M1359,706.6l96.8-44.1c2.8-1.3,4.1-4.7,2.8-7.5l-91.2-200.2c-1.3-2.9-4.7-4.1-7.5-2.8l-96.8,44.1
	c-2.8,1.3-4.1,4.7-2.8,7.5l91.2,200.2C1352.8,706.6,1356.1,707.9,1359,706.6L1359,706.6z"/>
<rect x="1344" y="474.7" transform="matrix(0.9096 -0.4155 0.4155 0.9096 -78.6251 605.8432)" class="st7" width="17.8" height="17.8"/>
<rect x="1353.3" y="495.2" transform="matrix(0.9096 -0.4155 0.4155 0.9096 -86.3019 611.5606)" class="st7" width="17.8" height="17.8"/>
<rect x="1362.6" y="515.6" transform="matrix(0.9096 -0.4155 0.4155 0.9096 -93.9373 617.2689)" class="st7" width="17.8" height="17.8"/>
<rect x="1371.9" y="536" transform="matrix(0.9096 -0.4155 0.4155 0.9096 -101.5726 622.9773)" class="st7" width="17.8" height="17.8"/>
<rect x="1381.2" y="556.4" transform="matrix(0.9096 -0.4155 0.4155 0.9096 -109.208 628.6857)" class="st7" width="17.8" height="17.8"/>
<rect x="1390.5" y="576.8" transform="matrix(0.9096 -0.4155 0.4155 0.9096 -116.8433 634.394)" class="st7" width="17.8" height="17.8"/>
<rect x="1399.8" y="597.2" transform="matrix(0.9096 -0.4155 0.4155 0.9096 -124.4786 640.1024)" class="st7" width="17.8" height="17.8"/>
<rect x="1409.1" y="617.6" transform="matrix(0.9096 -0.4155 0.4155 0.9096 -132.114 645.8107)" class="st7" width="17.8" height="17.8"/>
<rect x="1418.4" y="638" transform="matrix(0.9096 -0.4155 0.4155 0.9096 -139.7493 651.5191)" class="st7" width="17.8" height="17.8"/>
<rect x="1323.6" y="484" transform="matrix(0.9096 -0.4155 0.4155 0.9096 -84.3334 598.2078)" class="st7" width="17.8" height="17.8"/>
<rect x="1332.9" y="504.4" transform="matrix(0.9096 -0.4155 0.4155 0.9096 -91.9687 603.9172)" class="st7" width="17.8" height="17.8"/>
<rect x="1342.2" y="524.8" transform="matrix(0.9096 -0.4155 0.4155 0.9096 -99.6041 609.6246)" class="st7" width="17.8" height="17.8"/>
<rect x="1351.5" y="545.2" transform="matrix(0.9096 -0.4155 0.4155 0.9096 -107.2394 615.3329)" class="st7" width="17.8" height="17.8"/>
<rect x="1360.8" y="565.7" transform="matrix(0.9096 -0.4155 0.4155 0.9096 -114.9163 621.0504)" class="st7" width="17.8" height="17.8"/>
<rect x="1370.1" y="586.1" transform="matrix(0.9096 -0.4155 0.4155 0.9096 -122.5517 626.7587)" class="st7" width="17.8" height="17.8"/>
<rect x="1379.4" y="606.5" transform="matrix(0.9096 -0.4155 0.4155 0.9096 -130.187 632.467)" class="st7" width="17.8" height="17.8"/>
<polygon class="st7" points="1300.3,497.8 1307.7,514 1323.9,506.6 1316.5,490.4 1300.3,497.8 "/>
<rect x="1312.5" y="513.7" transform="matrix(0.9096 -0.4155 0.4155 0.9096 -97.6771 596.2808)" class="st7" width="17.8" height="17.8"/>
<rect x="1321.8" y="534.1" transform="matrix(0.9096 -0.4155 0.4155 0.9096 -105.3124 601.9893)" class="st7" width="17.8" height="17.8"/>
<rect x="1331.1" y="554.5" transform="matrix(0.9096 -0.4155 0.4155 0.9096 -112.9478 607.6976)" class="st7" width="17.8" height="17.8"/>
<rect x="1340.4" y="574.9" transform="matrix(0.9096 -0.4155 0.4155 0.9096 -120.5831 613.4059)" class="st7" width="17.8" height="17.8"/>
<rect x="1349.7" y="595.3" transform="matrix(0.9096 -0.4155 0.4155 0.9096 -128.2185 619.1143)" class="st7" width="17.8" height="17.8"/>
<rect x="1359" y="615.8" transform="matrix(0.9096 -0.4155 0.4155 0.9096 -135.8954 624.8317)" class="st7" width="17.8" height="17.8"/>
<rect x="1368.3" y="636.2" transform="matrix(0.9096 -0.4155 0.4155 0.9096 -143.5307 630.5401)" class="st7" width="17.8" height="17.8"/>
<polygon class="st7" points="1415,652.5 1411.3,644.4 1405.7,632.1 1389.5,639.5 1395.1,651.8 1390.9,653.7 1384.6,656.6 
	1374.7,661.1 1382.1,677.3 1392,672.8 1398.3,669.9 1418.7,660.6 1415,652.5 "/>
<polygon class="st7" points="1279.9,507.1 1287.3,523.3 1303.5,515.9 1296.1,499.7 1279.9,507.1 "/>
<polygon class="st7" points="1337.9,591.5 1333.3,581.3 1331.4,577.1 1324,561 1322.1,556.8 1314.7,540.6 1305.4,520.2 
	1289.2,527.6 1298.5,548 1305.9,564.2 1307.8,568.4 1315.2,584.6 1317.1,588.8 1321.7,599 1324.4,605 1340.6,597.6 "/>
<rect x="1329.3" y="604.6" transform="matrix(0.9096 -0.4155 0.4155 0.9096 -133.9268 611.4789)" class="st7" width="17.8" height="17.8"/>
<rect x="1338.6" y="625" transform="matrix(0.9096 -0.4155 0.4155 0.9096 -141.5622 617.1873)" class="st7" width="17.8" height="17.8"/>
<rect x="1347.9" y="645.5" transform="matrix(0.9096 -0.4155 0.4155 0.9096 -149.2391 622.9047)" class="st7" width="17.8" height="17.8"/>
<rect x="1357.2" y="665.9" transform="matrix(0.9096 -0.4155 0.4155 0.9096 -156.8744 628.6131)" class="st7" width="17.8" height="17.8"/>
<polygon class="st7" points="1001.8,502.9 1053.4,502.9 1053.4,451.3 1001.8,451.3 1001.8,502.9 "/>
<rect x="1053.3" y="451.3" class="st7" width="51.6" height="51.6"/>
<rect x="1104.9" y="451.3" class="st7" width="51.6" height="51.6"/>
<rect x="1156.5" y="451.3" class="st7" width="51.6" height="51.6"/>
<rect x="1208.1" y="451.3" class="st7" width="51.6" height="51.6"/>
<polygon class="st7" points="1001.7,554.5 1053.3,554.5 1053.3,502.9 1001.7,502.9 1001.7,554.5 "/>
<rect x="1053.3" y="502.9" class="st7" width="51.6" height="51.6"/>
<rect x="1104.9" y="502.9" class="st7" width="51.6" height="51.6"/>
<rect x="1156.5" y="502.9" class="st7" width="51.6" height="51.6"/>
<rect x="1208.1" y="502.9" class="st7" width="51.6" height="51.6"/>
<polygon class="st7" points="1001.7,606.1 1053.3,606.1 1053.3,554.5 1001.7,554.5 1001.7,606.1 "/>
<rect x="1053.3" y="554.5" class="st7" width="51.6" height="51.6"/>
<polygon class="st7" points="1001.7,657.6 1053.3,657.6 1053.3,606 1001.7,606 1001.7,657.6 "/>
<rect x="1053.3" y="606" class="st7" width="51.6" height="51.6"/>
<polygon class="st7" points="1001.7,709.2 1053.3,709.2 1053.3,657.6 1001.7,657.6 1001.7,709.2 "/>
<rect x="1053.3" y="657.6" class="st7" width="51.6" height="51.6"/>
<polygon class="st7" points="1208.1,554.5 1104.9,554.5 1104.9,709.3 1259.7,709.3 1259.7,554.5 "/>
<circle class="st7" cx="1182.3" cy="631.9" r="77.4"/>
<line class="st8" x1="0" y1="709.2" x2="1512" y2="709.2"/>
<path class="st7" d="M1095.2,422.5c-1.5-2.5-1.9-4.7-1.2-6c0.6-1,1.9-1.5,3.7-1.5c1.3,0,2.6,0.3,4.6,1.6c1.1-0.2,2.2-0.4,3.1-0.6
	c-0.1-0.3-0.1-0.6-0.2-1c0,0,0-0.1,0-0.2c-0.2-0.8-1.5-3.9-7.5-3.9c-6.8,0-10.7,5.6-6,13.5c6.3,10.8,22.9,13.5,22.9,13.5
	c-1.2-1.6-2.2-3.2-3.2-4.9C1106.7,431.8,1098.8,428.6,1095.2,422.5L1095.2,422.5z"/>
<circle class="st7" cx="834.8" cy="657.6" r="50.5"/>
<rect x="681.7" y="614" transform="matrix(0.6335 -0.7738 0.7738 0.6335 -195.085 835.4773)" class="st7" width="205.2" height="19.4"/>
<polyline class="st7" points="1222.9,634 1182.8,593.9 1141.6,635.1 "/>
<polyline class="st7" points="1222.9,667.6 1182.8,627.5 1141.6,668.7 "/>
<path class="st7" d="M1102.3,416.6c-0.7,0.1-1.4,0.2-2.1,0.4c-2.3,0.4-4.4,0.5-6.4,0.4c-0.2,1.3,0.2,3.2,1.4,5.2
	c1.2,2.1,3,3.9,5,5.4c1.1-0.6,2.1-1.3,3.2-2c8.5-6,13.3-8.9,12.9-10c-1-3.3-0.7-1.8-10.9,0.2L1102.3,416.6z"/>
<path class="st7" d="M1091.7,424.5c-1.7-3-2.3-5.6-2-7.7c-10-2.1-17.6-9.9-24.8-21.5l-26.4,0.3c11.5,12.7,21.9,22.6,28.4,26.8
	c13.6,8.7,22.2,9.8,29.1,7.4C1094.4,428.2,1092.9,426.5,1091.7,424.5z"/>
<path class="st7" d="M1154.6,402.1c-2.4-5.2-6.8-10.5-14.9-13.6c-19.7-7.6-43.5-9.3-37.4-23.8c5.1-12,50.7-17.1,73.3-21.3
	c22.6-4.2,54.6-6.5,54.1-16.9s-26.4-15.5-61.9-22.6s-51.1-12.7-51.3-21.9c-0.3-9.2,30.8-16.2,68.4-24.7
	c20.2-4.6,45.8-11.1,67.8-19.8c-3.7-3.4-6.7-6.4-9-8.9c-15.8-17.6-25.4-42.4-16.9-57.9s34.3-24.5,53.2-15.8
	c18.9,8.7,31,33.2,15,55.8c-7.4,10.5-23.5,19.4-42.3,26.8c23.3,21.7,72.3,59.3,105.3,81.6c38.1,25.8,102.1,77.9,115.8,111.6
	c13.6,33.7,15.1,78.8-34.7,105.4c-21.8,11.7-27.9,14.5-27.9,14.5"/>
<path class="st7" d="M1175.3,402.1c0,0.3-0.1,48.7-34.4,48.7c-12.6,0-20.9-5.5-26.4-12.8c-1.2-1.6-2.2-3.2-3.2-4.9
	c-1.8-3.3-3.2-6.7-4.2-10.1c6-4.2,9.4-6.4,9.1-7.3c-1-3.3-0.7-1.8-10.9,0.2c-0.1-0.3-0.1-0.6-0.2-0.9c0,0,0-0.1,0-0.2
	c-1.4-7.3-1.3-12.8-1.3-12.8L1175.3,402.1L1175.3,402.1z"/>
</svg>
