<?xml version="1.0" encoding="utf-8"?>
<!-- Generator: Adobe Illustrator 27.1.0, SVG Export Plug-In . SVG Version: 6.00 Build 0)  -->
<!DOCTYPE svg PUBLIC "-//W3C//DTD SVG 1.1//EN" "http://www.w3.org/Graphics/SVG/1.1/DTD/svg11.dtd" [
	<!ENTITY ns_extend "http://ns.adobe.com/Extensibility/1.0/">
	<!ENTITY ns_ai "http://ns.adobe.com/AdobeIllustrator/10.0/">
	<!ENTITY ns_graphs "http://ns.adobe.com/Graphs/1.0/">
	<!ENTITY ns_vars "http://ns.adobe.com/Variables/1.0/">
	<!ENTITY ns_imrep "http://ns.adobe.com/ImageReplacement/1.0/">
	<!ENTITY ns_sfw "http://ns.adobe.com/SaveForWeb/1.0/">
	<!ENTITY ns_custom "http://ns.adobe.com/GenericCustomNamespace/1.0/">
	<!ENTITY ns_adobe_xpath "http://ns.adobe.com/XPath/1.0/">
]>
<svg version="1.1"
	 id="Layer_2_00000107564297983538297900000002285921825507719825_" xmlns:x="&ns_extend;" xmlns:i="&ns_ai;" xmlns:graph="&ns_graphs;"
	 xmlns="http://www.w3.org/2000/svg" xmlns:xlink="http://www.w3.org/1999/xlink" x="0px" y="0px" width="1512px" height="834px"
	 viewBox="0 0 1512 834" style="enable-background:new 0 0 1512 834;" xml:space="preserve">
<style type="text/css">
	.st0{fill:#FFE000;}
	.st1{fill:#66FB66;}
	.st2{fill:#0033D9;}
	.st3{fill:none;}
	.st4{fill:#FFFFFF;}
	.st5{fill:#00FFFF;}
	.st6{fill:#F8EA21;}
	.st7{fill:#FFCAD9;}
	.st8{fill:none;stroke:#000000;stroke-width:3;stroke-linecap:round;stroke-linejoin:round;}
	.st9{fill:#E05BD9;}
</style>
<metadata>
	<sfw  xmlns="&ns_sfw;">
		<slices></slices>
		<sliceSourceBounds  bottomLeftOrigin="true" height="723.7" width="1515" x="-1.5" y="0"></sliceSourceBounds>
	</sfw>
</metadata>
<rect y="709.3" class="st0" width="1512" height="124.7"/>
<circle class="st1" cx="400.4" cy="145.5" r="35.2"/>
<polygon class="st2" points="1259.6,449.7 1423.3,449.7 1423.3,248 "/>
<g>
	<line class="st3" x1="939" y1="416.6" x2="938.9" y2="417"/>
	<path class="st4" d="M1103.3,425.9c-8.5,6-17.7,8.5-36.4-3.5c-6.5-4.2-16.9-14.1-28.4-26.8l26.4-0.3c9.5,15.4,19.7,24.1,35.2,21.7
		s15-4.9,16.1-1.1C1116.6,417,1111.8,419.9,1103.3,425.9z"/>
	<path class="st3" d="M1007.6,217.4c-0.4-2-0.9-2.8-0.9-2.8"/>
	<path d="M1065,395.3l-26.4,0.3c-21.7-23.8-47.2-57.1-58-79.5L939,416.6c-5.1-8.6-11-17.5-14-25.2c-0.5-1.3-1.2-3.8-1.9-7.3
		c-3-13.5-7.8-41.1-11.6-64.2c7.1-7.6,25.3-27.1,41.1-41.5c20.1-18.4,44.8-34.6,45.9-44.8c0.2-1.8,0.4-4.8,0.6-8.6
		c2.3-2.1,5.2-4.7,8.4-7.5c0.9,4.2,1.3,13.8-4.5,32.4c0,0,12.7,33.9,22.2,58.9c9.5,25.1,30,70.9,39.5,86.5
		C1064.9,395.2,1064.9,395.3,1065,395.3L1065,395.3z"/>
	<path d="M1082.2,176c-0.4,0.9-0.8,1.7-1.2,2.6c-8.9-5.3-19.8-17.1-19.8-17.1c-4.7,6.1-13.7,8.5-15.5,8.9c-1.9,0.5,0.5-7.3,0-12
		s-4.5-4.2-7.1,0s2.3,4.2-2.8,8.5c-4.8,3.9-23.7,7.8-26.7,8.4c1.3-0.3,2.6-0.7,3.8-1.1c8.3-2.8,8.8-11.6,10.2-17.3
		c1.4-5.6,4.9-14.5,9.5-21.9s12.3-11.6,27.5-5.6c15.2,6,27.5,20.1,28.9,24.4C1090.6,158,1087.1,164.7,1082.2,176L1082.2,176z"/>
	<path class="st4" d="M1081,178.6c-11.7,25.4-25,35.5-35.6,35.9c-10.9,0.4-15.9-14.5-15.9-14.5c-5.8,3.7-14.7,11.1-22,17.4
		c-3.2,2.8-6.2,5.4-8.4,7.5c0.8-13.6,1.7-37,2.2-47.9l0.2-0.3l0,0c2.5-0.3,5-0.7,7.3-1.3c0,0,0.1,0,0.4-0.1
		c2.9-0.6,21.9-4.5,26.6-8.4c5.2-4.2,0.2-4.2,2.8-8.5c2.6-4.2,6.6-4.7,7.1,0s-1.9,12.5,0,12s10.8-2.8,15.5-8.9
		C1061.2,161.5,1072.1,173.3,1081,178.6L1081,178.6z"/>
	<path class="st4" d="M1001.3,176.9l-46.4,51.4l16,9.4l-60.6,74.7c0.4,2.4,0.8,4.9,1.2,7.5c3.8,23.1,8.5,50.8,11.6,64.2h-22.8
		c-4-6.5-8.3-13.7-12.4-21.2c-2-3.6-3.9-7.4-5.8-11.2c-3.7,3.5-7.6,7.7-11.5,12.5c-18.1,22.4-37,56.4-48.5,78.6
		c-6.8,13-11,21.9-11,21.9c-5.5-3.1-17.2-13.2-29.8-27.3c-10.2-11.4-20.9-25.5-29.1-40.5c-12.2-22.4-19.1-44.2-22.4-56.3l0,0
		c-1.6-6-2.3-9.7-2.3-9.7C778.3,218,918.8,186.3,952.6,181.3c21.2-3.1,36.5-3,48.7-4.6C1001.3,176.8,1001.3,176.9,1001.3,176.9
		L1001.3,176.9z"/>
	<path class="st3" d="M1001.5,176.7c-0.1,0-0.2,0-0.2,0"/>
	<path class="st3" d="M999.1,224.9c-2.9,2.6-4.7,4.3-4.7,4.3"/>
	<path class="st4" d="M1001.3,176.9c-0.4,10.9-1.4,34.3-2.2,47.9c-0.2,3.8-0.4,6.9-0.6,8.6c-1.1,10.2-25.8,26.5-45.9,44.8
		c-15.8,14.4-34.1,33.9-41.1,41.5c-0.4-2.5-0.8-5-1.2-7.5l60.6-74.7l-16-9.4L1001.3,176.9L1001.3,176.9z"/>
	<path class="st5" d="M969.2,498.2c-1.8,11.8-16.8,170.5-16.8,170.5h-50.3c0,0-5.3-56.7-4.6-100.1c0.7-43.4,11.7-55.1,11.7-55.1
		c-27.9-14.8-87.2-70.8-87.2-70.8c11.5-22.1,30.4-56.2,48.5-78.5c5.1,4.6,26.2,24.8,47.4,46.8l0,0c12.9,13.3,25.8,27.2,35.4,38.7
		c6.8,8.2,11.9,15.1,13.9,19.6C973.1,482.4,971,486.4,969.2,498.2L969.2,498.2z"/>
	<path d="M988,709.3h-92.9c-0.7-7.8,7.5-23.1,8.9-28.2c1.4-5.2,0-12.3,0-12.3h31.5c0.5,13.3,5.7,18.2,27.1,24.1
		C984,698.7,988,709.3,988,709.3z"/>
	<path d="M918,411c-21.3-21.9-42.3-42.2-47.4-46.8c3.9-4.8,7.7-9,11.5-12.5c1.8,3.8,3.8,7.5,5.8,11.2c4.1,7.5,8.4,14.8,12.4,21.2
		C909.7,399.5,917.7,410.5,918,411z"/>
	<path class="st3" d="M882,351.8c-7.4-15.2-13.4-30.5-16.3-40.1c-8.9-28.7-12.9-42.8,20.5-76.2s88-49.4,88-49.4"/>
	<path class="st4" d="M953.4,449.7c-9.5-11.4-22.5-25.4-35.4-38.7l0,0c-0.3-0.5-8.3-11.5-17.8-26.9H923c0.8,3.5,1.4,6,1.9,7.3
		c3,7.8,8.9,16.7,14,25.2c2,3.3,3.9,6.6,5.5,9.8C950.2,437.7,952.9,443.1,953.4,449.7z"/>
	<path class="st3" d="M905.5,282.2c0,0,2,13.1,4.8,30.2"/>
	<path d="M781.3,437.4c0,0-18.7,35.6-72.3,105.8c-53.6,70.1-133.6,128.9-133.6,128.9l-9.9-18.3l-7.5,34.8
		c12.7,7.1,18.3,20.7,18.3,20.7H542l-31.1-65.4c9.9-12.7,37.2-19.3,37.2-19.3c13.7-8,64-62.1,84.7-90.8s49.4-87.5,63.1-116.8
		c13.5-29,33.6-75.5,34-76.4c3.2,12.1,10.1,34,22.4,56.3C760.4,411.9,771.1,426,781.3,437.4L781.3,437.4z"/>
</g>
<path class="st6" d="M1175.3,402.2c0,0.3-0.1,48.7-34.4,48.7c-12.6,0-20.9-5.5-26.4-12.8c-1.2-1.6-2.2-3.2-3.2-4.9
	c-2.4-4.4-4.1-9.2-5.2-13.6c-0.4-1.6-0.7-3.1-1-4.5c0,0,0-0.1,0-0.2c-1.4-7.3-1.3-12.8-1.3-12.8L1175.3,402.2L1175.3,402.2z"/>
<path d="M1114.6,438.1c0,0-16.6-2.7-22.9-13.5c-4.7-8-0.8-13.5,6-13.5c6,0,7.2,3.1,7.5,3.9c0,0.1,0,0.2,0,0.2c0.3,1.5,0.6,3,1,4.5
	c-4.7-4-6.5-4.6-8.5-4.6c-1.8,0-3.2,0.6-3.7,1.5c-0.7,1.3-0.3,3.5,1.2,6c3.6,6.1,11.5,9.3,16.3,10.7
	C1112.4,434.9,1113.4,436.6,1114.6,438.1L1114.6,438.1z"/>
<g>
	<rect x="1368.2" y="636.2" transform="matrix(0.91 -0.4145 0.4145 0.91 -143.5382 628.8521)" width="17.8" height="17.8"/>
	<polygon points="1337.8,591.6 1333.2,581.4 1331.3,577.2 1323.9,561 1322,556.8 1314.6,540.6 1305.3,520.2 1289.2,527.5 
		1298.5,548 1305.8,564.1 1307.8,568.4 1315.1,584.5 1317.1,588.8 1321.7,599 1324.4,605 1340.6,597.6 	"/>
	<rect x="1338.4" y="625" transform="matrix(0.91 -0.4145 0.4145 0.91 -141.5723 615.5192)" width="17.8" height="17.8"/>
	<rect x="1347.8" y="645.5" transform="matrix(0.91 -0.4145 0.4145 0.91 -149.2268 621.2313)" width="17.8" height="17.8"/>
	<rect x="1357.1" y="665.9" transform="matrix(0.91 -0.4145 0.4145 0.91 -156.8476 626.9199)" width="17.8" height="17.8"/>
</g>
<circle class="st7" cx="1182.2" cy="631.9" r="77.4"/>
<circle class="st1" cx="1362.8" cy="295.6" r="16"/>
<line class="st8" x1="0" y1="709.3" x2="1512" y2="709.3"/>
<path class="st4" d="M1100.2,417c15.5-2.4,15-4.9,16.1-1.1c0.3,1.1-4.5,4-12.9,10"/>
<circle class="st4" cx="834.8" cy="657.7" r="50.5"/>
<rect x="681.7" y="614" transform="matrix(0.6335 -0.7737 0.7737 0.6335 -195.1504 835.3716)" class="st9" width="205.2" height="19.4"/>
</svg>
