<?xml version="1.0" encoding="utf-8"?>
<!-- Generator: Adobe Illustrator 27.1.0, SVG Export Plug-In . SVG Version: 6.00 Build 0)  -->
<!DOCTYPE svg PUBLIC "-//W3C//DTD SVG 1.1//EN" "http://www.w3.org/Graphics/SVG/1.1/DTD/svg11.dtd" [
	<!ENTITY ns_extend "http://ns.adobe.com/Extensibility/1.0/">
	<!ENTITY ns_ai "http://ns.adobe.com/AdobeIllustrator/10.0/">
	<!ENTITY ns_graphs "http://ns.adobe.com/Graphs/1.0/">
	<!ENTITY ns_vars "http://ns.adobe.com/Variables/1.0/">
	<!ENTITY ns_imrep "http://ns.adobe.com/ImageReplacement/1.0/">
	<!ENTITY ns_sfw "http://ns.adobe.com/SaveForWeb/1.0/">
	<!ENTITY ns_custom "http://ns.adobe.com/GenericCustomNamespace/1.0/">
	<!ENTITY ns_adobe_xpath "http://ns.adobe.com/XPath/1.0/">
]>
<svg version="1.1" id="Layer_1" xmlns:x="&ns_extend;" xmlns:i="&ns_ai;" xmlns:graph="&ns_graphs;"
	 xmlns="http://www.w3.org/2000/svg" xmlns:xlink="http://www.w3.org/1999/xlink" x="0px" y="0px" width="1512px" height="834px"
	 viewBox="0 0 1512 834" style="enable-background:new 0 0 1512 834;" xml:space="preserve">
<style type="text/css">
	.st0{fill:none;stroke:#000000;stroke-miterlimit:10;}
</style>
<metadata>
	<sfw  xmlns="&ns_sfw;">
		<slices></slices>
		<sliceSourceBounds  bottomLeftOrigin="true" height="834" width="1512" x="0" y="0"></sliceSourceBounds>
	</sfw>
</metadata>
<g id="_Group_grid_">
	<line class="st0" x1="84" y1="0" x2="84" y2="834"/>
	<line class="st0" x1="168" y1="0" x2="168" y2="834"/>
	<line class="st0" x1="252" y1="0" x2="252" y2="834"/>
	<line class="st0" x1="336" y1="0" x2="336" y2="834"/>
	<line class="st0" x1="420" y1="0" x2="420" y2="834"/>
	<polyline class="st0" points="504,834 504,750.6 504,667.2 504,583.8 504,500.4 	"/>
	<polyline class="st0" points="504,333.6 504,250.2 504,166.8 504,83.4 504,0 	"/>
	<polyline class="st0" points="588,834 588,750.6 588,667.2 588,583.8 588,500.4 	"/>
	<polyline class="st0" points="588,333.6 588,250.2 588,166.8 588,83.4 588,0 	"/>
	<polyline class="st0" points="672,834 672,750.6 672,667.2 672,583.8 672,500.4 	"/>
	<polyline class="st0" points="672,333.6 672,250.2 672,166.8 672,83.4 672,0 	"/>
	<polyline class="st0" points="756,834 756,750.6 756,667.2 756,583.8 756,500.4 	"/>
	<polyline class="st0" points="756,333.6 756,250.2 756,166.8 756,83.4 756,0 	"/>
	<polyline class="st0" points="840,834 840,750.6 840,667.2 840,583.8 840,500.4 	"/>
	<polyline class="st0" points="840,333.6 840,250.2 840,166.8 840,83.4 840,0 	"/>
	<polyline class="st0" points="924,834 924,750.6 924,667.2 924,583.8 924,500.4 	"/>
	<polyline class="st0" points="924,333.6 924,250.2 924,166.8 924,83.4 924,0 	"/>
	<polyline class="st0" points="1008,834 1008,750.6 1008,667.2 1008,583.8 1008,500.4 	"/>
	<polyline class="st0" points="1008,333.6 1008,250.2 1008,166.8 1008,83.4 1008,0 	"/>
	<line class="st0" x1="1092" y1="0" x2="1092" y2="834"/>
	<line class="st0" x1="1176" y1="0" x2="1176" y2="834"/>
	<line class="st0" x1="1260" y1="0" x2="1260" y2="834"/>
	<line class="st0" x1="1344" y1="0" x2="1344" y2="834"/>
	<line class="st0" x1="1428" y1="0" x2="1428" y2="834"/>
	<polyline class="st0" points="1512,83.4 1428,83.4 1344,83.4 1260,83.4 1176,83.4 1092,83.4 1008,83.4 924,83.4 840,83.4 756,83.4 
		672,83.4 588,83.4 504,83.4 420,83.4 336,83.4 252,83.4 168,83.4 84,83.4 0,83.4 	"/>
	<polyline class="st0" points="1512,166.8 1428,166.8 1344,166.8 1260,166.8 1176,166.8 1092,166.8 1008,166.8 924,166.8 840,166.8 
		756,166.8 672,166.8 588,166.8 504,166.8 420,166.8 336,166.8 252,166.8 168,166.8 84,166.8 0,166.8 	"/>
	<polyline class="st0" points="1512,250.2 1428,250.2 1344,250.2 1260,250.2 1176,250.2 1092,250.2 1008,250.2 924,250.2 840,250.2 
		756,250.2 672,250.2 588,250.2 504,250.2 420,250.2 336,250.2 252,250.2 168,250.2 84,250.2 0,250.2 	"/>
	<polyline class="st0" points="1512,333.6 1428,333.6 1344,333.6 1260,333.6 1176,333.6 1092,333.6 1008,333.6 	"/>
	<polyline class="st0" points="504,333.6 420,333.6 336,333.6 252,333.6 168,333.6 84,333.6 0,333.6 	"/>
	<polyline class="st0" points="1512,417 1428,417 1344,417 1260,417 1176,417 1092,417 1008,417 	"/>
	<polyline class="st0" points="504,417 420,417 336,417 252,417 168,417 84,417 0,417 	"/>
	<polyline class="st0" points="1512,500.4 1428,500.4 1344,500.4 1260,500.4 1176,500.4 1092,500.4 1008,500.4 	"/>
	<polyline class="st0" points="504,500.4 420,500.4 336,500.4 252,500.4 168,500.4 84,500.4 0,500.4 	"/>
	<polyline class="st0" points="1512,583.8 1428,583.8 1344,583.8 1260,583.8 1176,583.8 1092,583.8 1008,583.8 924,583.8 840,583.8 
		756,583.8 672,583.8 588,583.8 504,583.8 420,583.8 336,583.8 252,583.8 168,583.8 84,583.8 0,583.8 	"/>
	<polyline class="st0" points="1512,667.2 1428,667.2 1344,667.2 1260,667.2 1176,667.2 1092,667.2 1008,667.2 924,667.2 840,667.2 
		756,667.2 672,667.2 588,667.2 504,667.2 420,667.2 336,667.2 252,667.2 168,667.2 84,667.2 0,667.2 	"/>
	<polyline class="st0" points="1512,750.6 1428,750.6 1344,750.6 1260,750.6 1176,750.6 1092,750.6 1008,750.6 924,750.6 840,750.6 
		756,750.6 672,750.6 588,750.6 504,750.6 420,750.6 336,750.6 252,750.6 168,750.6 84,750.6 0,750.6 	"/>
</g>
<rect id="_Path-container_" x="504" y="333.6" class="st0" width="504" height="166.8"/>
<g id="_Group-logo_">
	<path d="M747.7,395.9c0.5-1.6,0.8-3.2,0.8-5c0.6-12.4-9.5-22.7-21.9-22.7h-29.7c-5.1,0-9.3,4.2-9.3,9.3v22c0,5.1,3.2,9.5,7.8,11.2
		v25.4c0,0,0,0,0,0h38.4c11.3,0,20.6-9.7,21.1-22C755.2,407,752.3,400.4,747.7,395.9L747.7,395.9z M695.4,399.7v5.6
		c-1.8-1.3-3-3.4-3-5.8v-22c0-2.5,2-4.5,4.5-4.5h29.7c4.7,0,9.2,2,12.5,5.4c3.2,3.4,4.8,7.7,4.6,12.3c0,0.7-0.1,1.4-0.2,2
		c-3-1.7-6.4-2.7-10-2.7h-29.2C699.3,390.1,695.4,394.4,695.4,399.7L695.4,399.7z M741.9,397.5c-2.8,5.5-8.5,9.3-15,9.3h-26.7v-7
		c0-2.7,1.8-4.9,4-4.9h29.2C736.5,394.9,739.4,395.8,741.9,397.5L741.9,397.5z M733.8,431.4h-33.6v-19.8h26.7c8,0,15-4.3,18.7-10.8
		c3,3.6,4.7,8.3,4.4,13.2C749.6,423.7,742.5,431.4,733.8,431.4L733.8,431.4z"/>
	<path d="M632.4,368.6h28.3c4.2,0,7.9,0.6,11.1,1.8c3.2,1.2,5.8,2.8,7.9,4.9c1.6,1.6,2.9,3.5,3.8,5.6c0.9,2.1,1.3,4.5,1.3,6.9v0.2
		c0,2.8-0.5,5.4-1.5,7.6s-2.4,4.1-4.2,5.7s-3.9,2.9-6.3,3.9c-2.4,1-5,1.7-7.9,2.1l22.3,28.8H681l-21.5-28h-22.1v28h-5L632.4,368.6
		L632.4,368.6z M660.2,403.6c2.8,0,5.5-0.4,7.9-1.1s4.5-1.7,6.2-3c1.7-1.3,3.1-2.9,4.1-4.8s1.5-4.1,1.5-6.5v-0.2
		c0-4.6-1.7-8.2-5.1-10.8c-3.4-2.6-8.2-4-14.3-4h-23v30.5L660.2,403.6L660.2,403.6z"/>
	<path d="M783.6,437.3c-3.6,0-7-0.6-10-1.8c-3-1.2-5.6-2.8-7.8-4.9c-2.2-2.1-3.9-4.6-5.1-7.5s-1.8-6.2-1.8-9.8v-0.2
		c0-3.4,0.6-6.5,1.7-9.4c1.1-2.9,2.7-5.5,4.8-7.7s4.5-3.9,7.4-5.2c2.8-1.2,6-1.9,9.4-1.9c4,0,7.4,0.7,10.3,2
		c2.9,1.4,5.3,3.2,7.2,5.5c1.9,2.3,3.3,5,4.3,8s1.4,6.3,1.4,9.7v1.6c0,0.6,0,1.1-0.1,1.7h-30.8c0.6,2.6,1.8,4.5,3.5,5.7
		c1.7,1.2,3.9,1.9,6.4,1.9c1.9,0,3.7-0.4,5.3-1.1s3.2-1.9,4.9-3.6l9,7.4c-2.2,2.8-5,5.1-8.2,6.8
		C792.1,436.4,788.2,437.3,783.6,437.3L783.6,437.3z M790.2,409.3c-0.3-2.6-1.1-4.6-2.6-6.1s-3.2-2.3-5.5-2.3s-3.9,0.8-5.3,2.3
		c-1.4,1.5-2.3,3.5-2.7,6.1H790.2z"/>
	<path d="M851,393.4c-0.5-0.5-1.1-0.8-1.8-0.8c-0.8,0-1.4,0.3-1.9,0.8c-0.5,0.5-0.7,1.1-0.7,1.9v5.4c-0.9-1.6-2-3-3.3-4.3
		c-1.6-1.5-3.5-2.6-5.6-3.5c-2.1-0.9-4.4-1.3-6.9-1.3c-3.8,0-7.1,1-10.1,2.9s-5.4,4.6-7.2,8c-1.8,3.4-2.6,7.3-2.6,11.7
		s0.9,8.2,2.6,11.7c1.7,3.5,4.1,6.2,7.2,8.2s6.5,3,10.3,3c2.4,0,4.6-0.4,6.7-1.3c2.1-0.9,3.9-2,5.4-3.4c1.5-1.3,2.6-2.8,3.5-4.4v5.7
		c0,0.7,0.2,1.3,0.7,1.8s1.1,0.8,1.9,0.8c0.7,0,1.3-0.3,1.8-0.8c0.5-0.5,0.8-1.1,0.8-1.8v-38.4C851.7,394.5,851.5,393.9,851,393.4
		L851,393.4z M839.5,429.9c-2.3,1.6-5,2.3-8,2.3s-5.7-0.8-8-2.3s-4.2-3.7-5.5-6.5c-1.3-2.8-2-5.8-2-9.2s0.7-6.5,2-9.2
		s3.2-4.8,5.5-6.3s5-2.3,8-2.3s5.7,0.8,8,2.3s4.2,3.7,5.5,6.4c1.3,2.7,2,5.7,2,9s-0.7,6.5-2,9.2S841.8,428.3,839.5,429.9
		L839.5,429.9z"/>
	<path d="M878.3,389.6c2.1,0,4.3,0.4,6.6,1c2.3,0.7,4.4,1.7,6.2,3.1s3.5,3.1,4.8,5.2c1.3,2.1,2,4.5,2.2,7.2v30h-9.4v-27.7
		c-0.1-1.5-0.5-2.7-1.2-3.9s-1.5-2.1-2.6-2.9c-1-0.8-2.1-1.4-3.3-1.8c-1.2-0.4-2.4-0.6-3.5-0.6c-2.5,0-4.7,0.7-6.6,2
		c-1.9,1.4-3.2,3.3-3.9,5.9v28.9h-9.4v-30c0.2-2.6,0.9-5,2.1-7c1.2-2,2.8-3.8,4.6-5.2c1.9-1.4,4-2.5,6.3-3.2
		S875.9,389.6,878.3,389.6L878.3,389.6z"/>
	<path d="M584.9,388.6c0,1.5,1.2,2.7,2.7,2.7h37.4v20.5c-3-1-6.4-1.9-8.1-2.2c-3-0.6-6.1-0.9-9.1-0.9c-7.5,0-14.8,1.8-21.6,5.3
		c-1.3,0.7-1.9,2.4-1.2,3.7c0.5,0.9,1.3,1.4,2.3,1.5h0.1c0.4,0,0.9-0.1,1.3-0.3c6-3.2,12.4-4.8,18.9-4.8c2.7,0,5.4,0.3,8.1,0.8l0,0
		c2.4,0.5,5.9,1.5,9.2,2.7v18.5h-36.8c-11.2,0-20.3-9.1-20.3-20.3c0-5.3,2-10,5.3-13.7c-3.3-3.6-5.3-8.4-5.3-13.6
		c0-11.2,9.1-20.3,20.3-20.3h36.8v17.6h-37.4C586.2,385.9,584.9,387.1,584.9,388.6z"/>
	<path d="M903.3,435.2V411h5c1.2,1.9,2.8,3.4,4.6,4.5l0.5,0.3l1.4-2l-0.6-0.3c-1.4-0.8-2.7-2-3.6-3.3c-0.2-0.2-0.3-0.5-0.5-0.8
		c-0.1-0.1-0.2-0.3-0.2-0.4c-0.1-0.2-0.2-0.3-0.2-0.4c-0.2-0.4-0.4-0.9-0.6-1.3c-0.1-0.2-0.2-0.5-0.2-0.5c0-0.1-0.1-0.2-0.1-0.3
		c0,0-0.1-0.4-0.1-0.5c-0.1-0.4-0.2-0.7-0.2-1l-0.1-0.6l0-0.5c0-0.1,0-0.4,0-0.4c0-0.2,0-0.4,0-0.5c0-0.2,0-0.4,0-0.6
		c0-0.2,0-0.4,0-0.6c0.6-6.2,5.3-10.9,11-10.9h11.9c4.8,0,8.7,3.9,8.7,8.7v15.5h-5c-1.6-2.5-3.9-4.4-6.5-5.4l-0.6-0.2l-0.7,2.4
		l0.5,0.2c2,0.8,3.7,2.2,5,4l0.1,0.1c0.1,0.1,0.2,0.2,0.2,0.4l0.1,0.2c0.1,0.2,0.2,0.3,0.3,0.5l0.1,0.2c0.1,0.1,0.1,0.3,0.2,0.4
		l0.1,0.2c0.1,0.2,0.2,0.4,0.2,0.6l0.1,0.2c0.1,0.2,0.1,0.3,0.2,0.5l0,0.1c0.1,0.3,0.2,0.5,0.2,0.7l0,0.1c0.1,0.2,0.1,0.5,0.2,0.7
		c0.2,0.8,0.2,1.7,0.2,2.5c0,6.7-5,12.1-11.1,12.1L903.3,435.2L903.3,435.2z"/>
</g>
<path id="_Group-coffee_" d="M700.8,471.1c-1.4,0-2.7-0.3-3.9-0.8c-1.2-0.5-2.2-1.2-3.1-2.1s-1.5-1.9-2-3.1s-0.7-2.4-0.7-3.7v-0.1
	c0-1.3,0.2-2.5,0.7-3.7s1.2-2.2,2-3.1s1.9-1.6,3.1-2.1c1.2-0.5,2.6-0.8,4-0.8c1.9,0,3.5,0.4,4.8,1.1c1.3,0.8,2.3,1.8,3.1,3l-4.4,3.3
	c-0.5-0.6-1-1.1-1.5-1.4c-0.5-0.3-1.2-0.5-2-0.5c-0.5,0-1,0.1-1.5,0.3s-0.8,0.5-1.2,0.9s-0.6,0.8-0.8,1.3s-0.3,1-0.3,1.6v0.1
	c0,0.6,0.1,1.1,0.3,1.7s0.4,1,0.8,1.3s0.7,0.7,1.2,0.9c0.5,0.2,1,0.3,1.5,0.3c0.8,0,1.4-0.2,2-0.5c0.5-0.3,1.1-0.8,1.6-1.4l4.4,3.2
	c-0.9,1.3-2,2.3-3.3,3.1C704.5,470.7,702.9,471.1,700.8,471.1L700.8,471.1z M727.8,471.1c-1.5,0-2.8-0.2-4.1-0.8s-2.3-1.2-3.2-2.1
	c-0.9-0.9-1.6-1.9-2.1-3.1c-0.5-1.2-0.8-2.4-0.8-3.7v-0.1c0-1.3,0.3-2.6,0.8-3.8c0.5-1.2,1.2-2.2,2.1-3.1c0.9-0.9,2-1.6,3.3-2.1
	s2.6-0.8,4.1-0.8s2.8,0.3,4.1,0.8c1.2,0.5,2.3,1.2,3.2,2.1c0.9,0.9,1.6,1.9,2.1,3s0.8,2.4,0.8,3.7v0.1c0,1.3-0.3,2.6-0.8,3.8
	c-0.5,1.2-1.2,2.2-2.1,3.1c-0.9,0.9-2,1.6-3.3,2.1S729.2,471.1,727.8,471.1L727.8,471.1z M727.8,465.5c0.6,0,1.1-0.1,1.6-0.3
	c0.5-0.2,0.9-0.5,1.2-0.9c0.3-0.4,0.6-0.8,0.8-1.3s0.3-1,0.3-1.6v-0.1c0-0.6-0.1-1.1-0.3-1.6s-0.5-0.9-0.8-1.3
	c-0.4-0.4-0.8-0.7-1.2-0.9c-0.5-0.2-1-0.3-1.6-0.3s-1.1,0.1-1.6,0.3c-0.5,0.2-0.9,0.5-1.2,0.9c-0.3,0.4-0.6,0.8-0.8,1.3
	s-0.3,1-0.3,1.6v0.1c0,0.6,0.1,1.1,0.3,1.6s0.5,0.9,0.8,1.3c0.3,0.4,0.8,0.7,1.2,0.9C726.7,465.4,727.2,465.5,727.8,465.5z
	 M748.8,457.3h-2.2v-5.1h2.2v-0.4c0-2.1,0.5-3.8,1.6-4.8c0.6-0.6,1.2-1,2-1.2c0.8-0.2,1.7-0.4,2.8-0.4c1,0,1.8,0,2.5,0.1
	c0.7,0.1,1.2,0.2,1.8,0.4v4.6c-0.4-0.1-0.8-0.2-1.2-0.3c-0.4-0.1-0.8-0.1-1.3-0.1c-1.2,0-1.8,0.6-1.8,1.8v0.5h4.2v5h-4.2v13.4h-6.5
	L748.8,457.3L748.8,457.3z M769.5,457.3h-2.2v-5.1h2.2v-0.4c0-2.1,0.5-3.8,1.6-4.8c0.6-0.6,1.2-1,2-1.2s1.7-0.4,2.8-0.4
	c1,0,1.8,0,2.5,0.1c0.7,0.1,1.2,0.2,1.8,0.4v4.6c-0.4-0.1-0.8-0.2-1.2-0.3c-0.4-0.1-0.8-0.1-1.3-0.1c-1.2,0-1.8,0.6-1.8,1.8v0.5h4.2
	v5H776v13.4h-6.5L769.5,457.3L769.5,457.3z M798.3,471.1c-1.5,0-2.8-0.2-4-0.7c-1.2-0.5-2.3-1.1-3.1-2c-0.9-0.8-1.6-1.9-2.1-3
	s-0.7-2.5-0.7-4v-0.1c0-1.4,0.2-2.6,0.7-3.8c0.5-1.2,1.1-2.2,1.9-3.1c0.8-0.9,1.8-1.6,3-2.1c1.1-0.5,2.4-0.8,3.8-0.8
	c1.6,0,3,0.3,4.2,0.8c1.2,0.5,2.2,1.3,2.9,2.2c0.8,0.9,1.3,2,1.7,3.2c0.4,1.2,0.6,2.5,0.6,3.9v0.6c0,0.2,0,0.5,0,0.7h-12.4
	c0.2,1,0.7,1.8,1.4,2.3c0.7,0.5,1.6,0.8,2.6,0.8c0.8,0,1.5-0.1,2.1-0.5c0.7-0.3,1.3-0.8,2-1.4l3.6,3c-0.9,1.1-2,2.1-3.3,2.7
	C801.7,470.7,800.1,471,798.3,471.1L798.3,471.1z M801,459.8c-0.1-1-0.5-1.9-1-2.5c-0.6-0.6-1.3-0.9-2.2-0.9s-1.6,0.3-2.1,0.9
	c-0.5,0.6-0.9,1.4-1.1,2.5H801L801,459.8z M825.9,471.1c-1.5,0-2.8-0.2-4-0.7c-1.2-0.5-2.3-1.1-3.1-2c-0.9-0.8-1.6-1.9-2.1-3
	s-0.7-2.5-0.7-4v-0.1c0-1.4,0.2-2.6,0.7-3.8c0.5-1.2,1.1-2.2,1.9-3.1c0.8-0.9,1.8-1.6,3-2.1c1.1-0.5,2.4-0.8,3.8-0.8
	c1.6,0,3,0.3,4.2,0.8c1.2,0.5,2.2,1.3,2.9,2.2c0.8,0.9,1.3,2,1.7,3.2c0.4,1.2,0.6,2.5,0.6,3.9v0.6c0,0.2,0,0.5,0,0.7h-12.4
	c0.2,1,0.7,1.8,1.4,2.3c0.7,0.5,1.6,0.8,2.6,0.8c0.8,0,1.5-0.1,2.1-0.5c0.7-0.3,1.3-0.8,2-1.4l3.6,3c-0.9,1.1-2,2.1-3.3,2.7
	C829.3,470.7,827.7,471,825.9,471.1L825.9,471.1z M828.6,459.8c-0.1-1-0.5-1.9-1-2.5c-0.6-0.6-1.3-0.9-2.2-0.9s-1.6,0.3-2.1,0.9
	c-0.5,0.6-0.9,1.4-1.1,2.5H828.6L828.6,459.8z"/>
</svg>
