<?xml version="1.0" encoding="utf-8"?>
<!-- Generator: Adobe Illustrator 27.1.0, SVG Export Plug-In . SVG Version: 6.00 Build 0)  -->
<!DOCTYPE svg PUBLIC "-//W3C//DTD SVG 1.1//EN" "http://www.w3.org/Graphics/SVG/1.1/DTD/svg11.dtd" [
	<!ENTITY ns_extend "http://ns.adobe.com/Extensibility/1.0/">
	<!ENTITY ns_ai "http://ns.adobe.com/AdobeIllustrator/10.0/">
	<!ENTITY ns_graphs "http://ns.adobe.com/Graphs/1.0/">
	<!ENTITY ns_vars "http://ns.adobe.com/Variables/1.0/">
	<!ENTITY ns_imrep "http://ns.adobe.com/ImageReplacement/1.0/">
	<!ENTITY ns_sfw "http://ns.adobe.com/SaveForWeb/1.0/">
	<!ENTITY ns_custom "http://ns.adobe.com/GenericCustomNamespace/1.0/">
	<!ENTITY ns_adobe_xpath "http://ns.adobe.com/XPath/1.0/">
]>
<svg version="1.1" id="Layer_3" xmlns:x="&ns_extend;" xmlns:i="&ns_ai;" xmlns:graph="&ns_graphs;"
	 xmlns="http://www.w3.org/2000/svg" xmlns:xlink="http://www.w3.org/1999/xlink" x="0px" y="0px" width="1512px" height="834px"
	 viewBox="0 0 1512 834" style="enable-background:new 0 0 1512 834;" xml:space="preserve">
<metadata>
	<sfw  xmlns="&ns_sfw;">
		<slices></slices>
		<sliceSourceBounds  bottomLeftOrigin="true" height="94.4" width="978.3" x="74.3" y="593.4"></sliceSourceBounds>
	</sfw>
</metadata>
<path d="M1023,154.3c-6.7,3.7-12.5,6.9-24.8,6.9s-18.1-3.2-24.8-6.9c-6.9-3.8-14.7-8.1-29.6-8.1s-22.7,4.3-29.6,8.1
	c-6.7,3.7-12.5,6.9-24.8,6.9s-18.1-3.2-24.8-6.9c-6.9-3.8-14.7-8.1-29.6-8.1s-22.7,4.3-29.6,8.1c-6.7,3.7-12.5,6.9-24.8,6.9
	s-18.1-3.2-24.8-6.9c-6.9-3.8-14.7-8.1-29.6-8.1s-22.7,4.3-29.6,8.1c-6.7,3.7-12.5,6.9-24.8,6.9s-18.1-3.2-24.8-6.9
	c-6.9-3.8-14.7-8.1-29.6-8.1s-22.7,4.3-29.6,8.1c-6.7,3.7-12.5,6.9-24.8,6.9s-18.1-3.2-24.8-6.9c-6.9-3.8-14.7-8.1-29.6-8.1
	s-22.7,4.3-29.6,8.1c-6.7,3.7-12.5,6.9-24.8,6.9s-18.1-3.2-24.8-6.9c-6.9-3.8-14.7-8.1-29.6-8.1s-22.7,4.3-29.6,8.1
	c-6.7,3.7-12.5,6.9-24.8,6.9s-18.1-3.2-24.8-6.9c-6.9-3.8-14.7-8.1-29.6-8.1s-22.7,4.3-29.6,8.1c-6.7,3.7-12.5,6.9-24.8,6.9
	s-18.1-3.2-24.8-6.9c-6.9-3.8-14.7-8.1-29.6-8.1s-22.7,4.3-29.6,8.1c-6.7,3.7-12.5,6.9-24.8,6.9s-18.1-3.2-24.8-6.9
	c-6.9-3.8-14.7-8.1-29.6-8.1v10c12.3,0,18.1,3.2,24.8,6.9c6.9,3.8,14.7,8.1,29.6,8.1s22.7-4.3,29.6-8.1c6.7-3.7,12.5-6.9,24.8-6.9
	s18.1,3.2,24.8,6.9c6.9,3.8,14.7,8.1,29.6,8.1s22.7-4.3,29.6-8.1c6.7-3.7,12.5-6.9,24.8-6.9s18.1,3.2,24.8,6.9
	c6.9,3.8,14.7,8.1,29.6,8.1s22.7-4.3,29.6-8.1c6.7-3.7,12.5-6.9,24.8-6.9s18.1,3.2,24.8,6.9c6.9,3.8,14.7,8.1,29.6,8.1
	s22.7-4.3,29.6-8.1c6.7-3.7,12.5-6.9,24.8-6.9c12.3,0,18.1,3.2,24.8,6.9c6.9,3.8,14.7,8.1,29.6,8.1s22.7-4.3,29.6-8.1
	c6.7-3.7,12.5-6.9,24.8-6.9s18.1,3.2,24.8,6.9c6.9,3.8,14.7,8.1,29.6,8.1s22.7-4.3,29.6-8.1c6.7-3.7,12.5-6.9,24.8-6.9
	s18.1,3.2,24.8,6.9c6.9,3.8,14.7,8.1,29.6,8.1s22.7-4.3,29.6-8.1c6.7-3.7,12.5-6.9,24.8-6.9s18.1,3.2,24.8,6.9
	c6.9,3.8,14.7,8.1,29.6,8.1s22.7-4.3,29.6-8.1c6.7-3.7,12.5-6.9,24.8-6.9s18.1,3.2,24.8,6.9c6.9,3.8,14.7,8.1,29.6,8.1
	s22.7-4.3,29.6-8.1c6.7-3.7,12.5-6.9,24.8-6.9v-10C1037.8,146.2,1030,150.5,1023,154.3z M998.3,195.8c-12.3,0-18.1-3.2-24.8-6.9
	c-6.9-3.8-14.7-8.1-29.6-8.1s-22.7,4.3-29.6,8.1c-6.7,3.7-12.5,6.9-24.8,6.9s-18.1-3.2-24.8-6.9c-6.9-3.8-14.7-8.1-29.6-8.1
	s-22.7,4.3-29.6,8.1c-6.7,3.7-12.5,6.9-24.8,6.9s-18.1-3.2-24.8-6.9c-6.9-3.8-14.7-8.1-29.6-8.1s-22.7,4.3-29.6,8.1
	c-6.7,3.7-12.5,6.9-24.8,6.9s-18.1-3.2-24.8-6.9c-6.9-3.8-14.7-8.1-29.6-8.1s-22.7,4.3-29.6,8.1c-6.7,3.7-12.5,6.9-24.8,6.9
	s-18.1-3.2-24.8-6.9c-6.9-3.8-14.7-8.1-29.6-8.1s-22.7,4.3-29.6,8.1c-6.7,3.7-12.5,6.9-24.8,6.9s-18.1-3.2-24.8-6.9
	c-6.9-3.8-14.7-8.1-29.6-8.1s-22.7,4.3-29.6,8.1c-6.7,3.7-12.5,6.9-24.8,6.9s-18.1-3.2-24.8-6.9c-6.9-3.8-14.7-8.1-29.6-8.1
	s-22.7,4.3-29.6,8.1c-6.7,3.7-12.5,6.9-24.8,6.9s-18.1-3.2-24.8-6.9c-6.9-3.8-14.7-8.1-29.6-8.1s-22.7,4.3-29.6,8.1
	c-6.7,3.7-12.5,6.9-24.8,6.9s-18.1-3.2-24.8-6.9c-6.9-3.8-14.7-8.1-29.6-8.1v10c12.3,0,18.1,3.2,24.8,6.9c6.9,3.8,14.7,8.1,29.6,8.1
	s22.7-4.3,29.6-8.1c6.7-3.7,12.5-6.9,24.8-6.9s18.1,3.2,24.8,6.9c6.9,3.8,14.7,8.1,29.6,8.1s22.7-4.3,29.6-8.1
	c6.7-3.7,12.5-6.9,24.8-6.9s18.1,3.2,24.8,6.9c6.9,3.8,14.7,8.1,29.6,8.1s22.7-4.3,29.6-8.1c6.7-3.7,12.5-6.9,24.8-6.9
	s18.1,3.2,24.8,6.9c6.9,3.8,14.7,8.1,29.6,8.1s22.7-4.3,29.6-8.1c6.7-3.7,12.5-6.9,24.8-6.9c12.3,0,18.1,3.2,24.8,6.9
	c6.9,3.8,14.7,8.1,29.6,8.1s22.7-4.3,29.6-8.1c6.7-3.7,12.5-6.9,24.8-6.9s18.1,3.2,24.8,6.9c6.9,3.8,14.7,8.1,29.6,8.1
	s22.7-4.3,29.6-8.1c6.7-3.7,12.5-6.9,24.8-6.9s18.1,3.2,24.8,6.9c6.9,3.8,14.7,8.1,29.6,8.1s22.7-4.3,29.6-8.1
	c6.7-3.7,12.5-6.9,24.8-6.9s18.1,3.2,24.8,6.9c6.9,3.8,14.7,8.1,29.6,8.1s22.7-4.3,29.6-8.1c6.7-3.7,12.5-6.9,24.8-6.9
	s18.1,3.2,24.8,6.9c6.9,3.8,14.7,8.1,29.6,8.1s22.7-4.3,29.6-8.1c6.7-3.7,12.5-6.9,24.8-6.9v-10c-14.9,0-22.7,4.3-29.6,8.1
	C1016.4,192.6,1010.6,195.8,998.3,195.8L998.3,195.8z M998.3,230.6c-12.3,0-18.1-3.2-24.8-6.9c-6.9-3.8-14.7-8.1-29.6-8.1
	s-22.7,4.3-29.6,8.1c-6.7,3.7-12.5,6.9-24.8,6.9s-18.1-3.2-24.8-6.9c-6.9-3.8-14.7-8.1-29.6-8.1s-22.7,4.3-29.6,8.1
	c-6.7,3.7-12.5,6.9-24.8,6.9s-18.1-3.2-24.8-6.9c-6.9-3.8-14.7-8.1-29.6-8.1s-22.7,4.3-29.6,8.1c-6.7,3.7-12.5,6.9-24.8,6.9
	s-18.1-3.2-24.8-6.9c-6.9-3.8-14.7-8.1-29.6-8.1s-22.7,4.3-29.6,8.1c-6.7,3.7-12.5,6.9-24.8,6.9s-18.1-3.2-24.8-6.9
	c-6.9-3.8-14.7-8.1-29.6-8.1s-22.7,4.3-29.6,8.1c-6.7,3.7-12.5,6.9-24.8,6.9s-18.1-3.2-24.8-6.9c-6.9-3.8-14.7-8.1-29.6-8.1
	s-22.7,4.3-29.6,8.1c-6.7,3.7-12.5,6.9-24.8,6.9s-18.1-3.2-24.8-6.9c-6.9-3.8-14.7-8.1-29.6-8.1s-22.7,4.3-29.6,8.1
	c-6.7,3.7-12.5,6.9-24.8,6.9s-18.1-3.2-24.8-6.9c-6.9-3.8-14.7-8.1-29.6-8.1s-22.7,4.3-29.6,8.1c-6.7,3.7-12.5,6.9-24.8,6.9
	s-18.1-3.2-24.8-6.9c-6.9-3.8-14.7-8.1-29.6-8.1v10c12.3,0,18.1,3.2,24.8,6.9c6.9,3.8,14.7,8.1,29.6,8.1s22.7-4.3,29.6-8.1
	c6.7-3.7,12.5-6.9,24.8-6.9s18.1,3.2,24.8,6.9c6.9,3.8,14.7,8.1,29.6,8.1s22.7-4.3,29.6-8.1c6.7-3.7,12.5-6.9,24.8-6.9
	s18.1,3.2,24.8,6.9c6.9,3.8,14.7,8.1,29.6,8.1s22.7-4.3,29.6-8.1c6.7-3.7,12.5-6.9,24.8-6.9s18.1,3.2,24.8,6.9
	c6.9,3.8,14.7,8.1,29.6,8.1s22.7-4.3,29.6-8.1c6.7-3.7,12.5-6.9,24.8-6.9c12.3,0,18.1,3.2,24.8,6.9c6.9,3.8,14.7,8.1,29.6,8.1
	s22.7-4.3,29.6-8.1c6.7-3.7,12.5-6.9,24.8-6.9s18.1,3.2,24.8,6.9c6.9,3.8,14.7,8.1,29.6,8.1s22.7-4.3,29.6-8.1
	c6.7-3.7,12.5-6.9,24.8-6.9s18.1,3.2,24.8,6.9c6.9,3.8,14.7,8.1,29.6,8.1s22.7-4.3,29.6-8.1c6.7-3.7,12.5-6.9,24.8-6.9
	s18.1,3.2,24.8,6.9c6.9,3.8,14.7,8.1,29.6,8.1s22.7-4.3,29.6-8.1c6.7-3.7,12.5-6.9,24.8-6.9s18.1,3.2,24.8,6.9
	c6.9,3.8,14.7,8.1,29.6,8.1s22.7-4.3,29.6-8.1c6.7-3.7,12.5-6.9,24.8-6.9v-10c-14.9,0-22.7,4.3-29.6,8.1
	C1016.4,227.4,1010.6,230.6,998.3,230.6L998.3,230.6z"/>
</svg>
